%TF.GenerationSoftware,KiCad,Pcbnew,8.0.8*%
%TF.CreationDate,2025-03-09T21:38:22+09:00*%
%TF.ProjectId,panelized,70616e65-6c69-47a6-9564-2e6b69636164,rev?*%
%TF.SameCoordinates,Original*%
%TF.FileFunction,Paste,Bot*%
%TF.FilePolarity,Positive*%
%FSLAX46Y46*%
G04 Gerber Fmt 4.6, Leading zero omitted, Abs format (unit mm)*
G04 Created by KiCad (PCBNEW 8.0.8) date 2025-03-09 21:38:22*
%MOMM*%
%LPD*%
G01*
G04 APERTURE LIST*
G04 Aperture macros list*
%AMRoundRect*
0 Rectangle with rounded corners*
0 $1 Rounding radius*
0 $2 $3 $4 $5 $6 $7 $8 $9 X,Y pos of 4 corners*
0 Add a 4 corners polygon primitive as box body*
4,1,4,$2,$3,$4,$5,$6,$7,$8,$9,$2,$3,0*
0 Add four circle primitives for the rounded corners*
1,1,$1+$1,$2,$3*
1,1,$1+$1,$4,$5*
1,1,$1+$1,$6,$7*
1,1,$1+$1,$8,$9*
0 Add four rect primitives between the rounded corners*
20,1,$1+$1,$2,$3,$4,$5,0*
20,1,$1+$1,$4,$5,$6,$7,0*
20,1,$1+$1,$6,$7,$8,$9,0*
20,1,$1+$1,$8,$9,$2,$3,0*%
G04 Aperture macros list end*
%ADD10RoundRect,0.079500X0.079500X0.100500X-0.079500X0.100500X-0.079500X-0.100500X0.079500X-0.100500X0*%
%ADD11RoundRect,0.225000X-0.225000X-0.250000X0.225000X-0.250000X0.225000X0.250000X-0.225000X0.250000X0*%
%ADD12RoundRect,0.200000X0.200000X0.275000X-0.200000X0.275000X-0.200000X-0.275000X0.200000X-0.275000X0*%
%ADD13RoundRect,0.200000X0.275000X-0.200000X0.275000X0.200000X-0.275000X0.200000X-0.275000X-0.200000X0*%
%ADD14RoundRect,0.225000X0.225000X0.250000X-0.225000X0.250000X-0.225000X-0.250000X0.225000X-0.250000X0*%
G04 APERTURE END LIST*
D10*
%TO.C,JP3*%
X1745000Y-15850000D03*
X1055000Y-15850000D03*
%TD*%
D11*
%TO.C,C1*%
X39525000Y-24300000D03*
X41075000Y-24300000D03*
%TD*%
D10*
%TO.C,JP3*%
X59745000Y-15850000D03*
X59055000Y-15850000D03*
%TD*%
%TO.C,JP3*%
X36545000Y-53050000D03*
X35855000Y-53050000D03*
%TD*%
D12*
%TO.C,R3*%
X6325000Y-11100000D03*
X4675000Y-11100000D03*
%TD*%
D10*
%TO.C,JP3*%
X82945000Y-15850000D03*
X82255000Y-15850000D03*
%TD*%
D12*
%TO.C,R3*%
X52725000Y-29700000D03*
X51075000Y-29700000D03*
%TD*%
D11*
%TO.C,C1*%
X16325000Y-5700000D03*
X17875000Y-5700000D03*
%TD*%
D10*
%TO.C,JP2*%
X4025000Y-72700000D03*
X3335000Y-72700000D03*
%TD*%
D12*
%TO.C,R3*%
X75925000Y-11100000D03*
X74275000Y-11100000D03*
%TD*%
D10*
%TO.C,JP4*%
X13345000Y-91300000D03*
X12655000Y-91300000D03*
%TD*%
%TO.C,JP4*%
X82945000Y-35500000D03*
X82255000Y-35500000D03*
%TD*%
D12*
%TO.C,R1*%
X87525000Y-87300000D03*
X85875000Y-87300000D03*
%TD*%
%TO.C,R1*%
X64325000Y-68700000D03*
X62675000Y-68700000D03*
%TD*%
D10*
%TO.C,JP2*%
X50425000Y-16900000D03*
X49735000Y-16900000D03*
%TD*%
%TO.C,JP1*%
X62025000Y-53050000D03*
X61335000Y-53050000D03*
%TD*%
D12*
%TO.C,R1*%
X64325000Y-50100000D03*
X62675000Y-50100000D03*
%TD*%
D10*
%TO.C,JP1*%
X50425000Y-53050000D03*
X49735000Y-53050000D03*
%TD*%
D12*
%TO.C,R1*%
X17925000Y-12900000D03*
X16275000Y-12900000D03*
%TD*%
%TO.C,R1*%
X17925000Y-87300000D03*
X16275000Y-87300000D03*
%TD*%
D13*
%TO.C,R2*%
X9300000Y-17125000D03*
X9300000Y-15475000D03*
%TD*%
D10*
%TO.C,JP2*%
X73625000Y-35500000D03*
X72935000Y-35500000D03*
%TD*%
%TO.C,JP4*%
X1745000Y-72700000D03*
X1055000Y-72700000D03*
%TD*%
D11*
%TO.C,C1*%
X16325000Y-24300000D03*
X17875000Y-24300000D03*
%TD*%
D10*
%TO.C,JP1*%
X73625000Y-34450000D03*
X72935000Y-34450000D03*
%TD*%
%TO.C,JP4*%
X36545000Y-91300000D03*
X35855000Y-91300000D03*
%TD*%
D14*
%TO.C,C2*%
X6275000Y-22300000D03*
X4725000Y-22300000D03*
%TD*%
D12*
%TO.C,R3*%
X29525000Y-11100000D03*
X27875000Y-11100000D03*
%TD*%
D13*
%TO.C,R2*%
X78900000Y-91525000D03*
X78900000Y-89875000D03*
%TD*%
D10*
%TO.C,JP2*%
X38825000Y-91300000D03*
X38135000Y-91300000D03*
%TD*%
D13*
%TO.C,R2*%
X78900000Y-54325000D03*
X78900000Y-52675000D03*
%TD*%
D10*
%TO.C,JP4*%
X24945000Y-72700000D03*
X24255000Y-72700000D03*
%TD*%
D13*
%TO.C,R2*%
X55700000Y-91525000D03*
X55700000Y-89875000D03*
%TD*%
D10*
%TO.C,JP3*%
X13345000Y-15850000D03*
X12655000Y-15850000D03*
%TD*%
%TO.C,JP2*%
X15625000Y-91300000D03*
X14935000Y-91300000D03*
%TD*%
%TO.C,JP4*%
X36545000Y-72700000D03*
X35855000Y-72700000D03*
%TD*%
%TO.C,JP3*%
X71345000Y-53050000D03*
X70655000Y-53050000D03*
%TD*%
D13*
%TO.C,R2*%
X78900000Y-72925000D03*
X78900000Y-71275000D03*
%TD*%
D11*
%TO.C,C1*%
X51125000Y-24300000D03*
X52675000Y-24300000D03*
%TD*%
D14*
%TO.C,C2*%
X17875000Y-22300000D03*
X16325000Y-22300000D03*
%TD*%
D10*
%TO.C,JP3*%
X24945000Y-34450000D03*
X24255000Y-34450000D03*
%TD*%
%TO.C,JP3*%
X1745000Y-90250000D03*
X1055000Y-90250000D03*
%TD*%
D13*
%TO.C,R2*%
X44100000Y-72925000D03*
X44100000Y-71275000D03*
%TD*%
D12*
%TO.C,R1*%
X29525000Y-12900000D03*
X27875000Y-12900000D03*
%TD*%
D10*
%TO.C,JP1*%
X62025000Y-34450000D03*
X61335000Y-34450000D03*
%TD*%
%TO.C,JP4*%
X59745000Y-91300000D03*
X59055000Y-91300000D03*
%TD*%
%TO.C,JP4*%
X24945000Y-35500000D03*
X24255000Y-35500000D03*
%TD*%
D11*
%TO.C,C1*%
X85925000Y-5700000D03*
X87475000Y-5700000D03*
%TD*%
D10*
%TO.C,JP3*%
X24945000Y-71650000D03*
X24255000Y-71650000D03*
%TD*%
D12*
%TO.C,R1*%
X17925000Y-68700000D03*
X16275000Y-68700000D03*
%TD*%
D14*
%TO.C,C2*%
X87475000Y-40900000D03*
X85925000Y-40900000D03*
%TD*%
D10*
%TO.C,JP3*%
X24945000Y-15850000D03*
X24255000Y-15850000D03*
%TD*%
%TO.C,JP1*%
X85225000Y-15850000D03*
X84535000Y-15850000D03*
%TD*%
D11*
%TO.C,C1*%
X4725000Y-5700000D03*
X6275000Y-5700000D03*
%TD*%
D10*
%TO.C,JP1*%
X15625000Y-71650000D03*
X14935000Y-71650000D03*
%TD*%
%TO.C,JP2*%
X4025000Y-35500000D03*
X3335000Y-35500000D03*
%TD*%
%TO.C,JP4*%
X48145000Y-35500000D03*
X47455000Y-35500000D03*
%TD*%
D13*
%TO.C,R2*%
X55700000Y-35725000D03*
X55700000Y-34075000D03*
%TD*%
D12*
%TO.C,R3*%
X87525000Y-11100000D03*
X85875000Y-11100000D03*
%TD*%
%TO.C,R3*%
X41125000Y-66900000D03*
X39475000Y-66900000D03*
%TD*%
D10*
%TO.C,JP3*%
X36545000Y-34450000D03*
X35855000Y-34450000D03*
%TD*%
%TO.C,JP2*%
X62025000Y-54100000D03*
X61335000Y-54100000D03*
%TD*%
D13*
%TO.C,R2*%
X67300000Y-72925000D03*
X67300000Y-71275000D03*
%TD*%
D10*
%TO.C,JP2*%
X62025000Y-72700000D03*
X61335000Y-72700000D03*
%TD*%
D13*
%TO.C,R2*%
X90500000Y-35725000D03*
X90500000Y-34075000D03*
%TD*%
D10*
%TO.C,JP4*%
X71345000Y-91300000D03*
X70655000Y-91300000D03*
%TD*%
%TO.C,JP1*%
X38825000Y-90250000D03*
X38135000Y-90250000D03*
%TD*%
%TO.C,JP2*%
X15625000Y-35500000D03*
X14935000Y-35500000D03*
%TD*%
%TO.C,JP1*%
X62025000Y-90250000D03*
X61335000Y-90250000D03*
%TD*%
D13*
%TO.C,R2*%
X90500000Y-17125000D03*
X90500000Y-15475000D03*
%TD*%
D11*
%TO.C,C1*%
X74325000Y-61500000D03*
X75875000Y-61500000D03*
%TD*%
D12*
%TO.C,R3*%
X64325000Y-85500000D03*
X62675000Y-85500000D03*
%TD*%
%TO.C,R1*%
X6325000Y-87300000D03*
X4675000Y-87300000D03*
%TD*%
D13*
%TO.C,R2*%
X67300000Y-54325000D03*
X67300000Y-52675000D03*
%TD*%
D10*
%TO.C,JP1*%
X50425000Y-71650000D03*
X49735000Y-71650000D03*
%TD*%
D14*
%TO.C,C2*%
X87475000Y-78100000D03*
X85925000Y-78100000D03*
%TD*%
D12*
%TO.C,R1*%
X64325000Y-12900000D03*
X62675000Y-12900000D03*
%TD*%
D10*
%TO.C,JP1*%
X4025000Y-34450000D03*
X3335000Y-34450000D03*
%TD*%
%TO.C,JP4*%
X24945000Y-54100000D03*
X24255000Y-54100000D03*
%TD*%
D13*
%TO.C,R2*%
X78900000Y-35725000D03*
X78900000Y-34075000D03*
%TD*%
D12*
%TO.C,R3*%
X6325000Y-85500000D03*
X4675000Y-85500000D03*
%TD*%
D10*
%TO.C,JP4*%
X24945000Y-16900000D03*
X24255000Y-16900000D03*
%TD*%
%TO.C,JP4*%
X1745000Y-35500000D03*
X1055000Y-35500000D03*
%TD*%
D11*
%TO.C,C1*%
X62725000Y-24300000D03*
X64275000Y-24300000D03*
%TD*%
D10*
%TO.C,JP2*%
X85225000Y-35500000D03*
X84535000Y-35500000D03*
%TD*%
%TO.C,JP1*%
X27225000Y-34450000D03*
X26535000Y-34450000D03*
%TD*%
D12*
%TO.C,R3*%
X75925000Y-85500000D03*
X74275000Y-85500000D03*
%TD*%
D10*
%TO.C,JP3*%
X71345000Y-90250000D03*
X70655000Y-90250000D03*
%TD*%
D13*
%TO.C,R2*%
X67300000Y-35725000D03*
X67300000Y-34075000D03*
%TD*%
D10*
%TO.C,JP4*%
X48145000Y-54100000D03*
X47455000Y-54100000D03*
%TD*%
D11*
%TO.C,C1*%
X27925000Y-5700000D03*
X29475000Y-5700000D03*
%TD*%
D10*
%TO.C,JP2*%
X50425000Y-91300000D03*
X49735000Y-91300000D03*
%TD*%
D12*
%TO.C,R1*%
X75925000Y-12900000D03*
X74275000Y-12900000D03*
%TD*%
D10*
%TO.C,JP1*%
X27225000Y-15850000D03*
X26535000Y-15850000D03*
%TD*%
D12*
%TO.C,R3*%
X87525000Y-66900000D03*
X85875000Y-66900000D03*
%TD*%
D13*
%TO.C,R2*%
X20900000Y-35725000D03*
X20900000Y-34075000D03*
%TD*%
D12*
%TO.C,R1*%
X75925000Y-68700000D03*
X74275000Y-68700000D03*
%TD*%
%TO.C,R1*%
X29525000Y-87300000D03*
X27875000Y-87300000D03*
%TD*%
D10*
%TO.C,JP3*%
X59745000Y-53050000D03*
X59055000Y-53050000D03*
%TD*%
%TO.C,JP2*%
X27225000Y-54100000D03*
X26535000Y-54100000D03*
%TD*%
%TO.C,JP4*%
X82945000Y-72700000D03*
X82255000Y-72700000D03*
%TD*%
%TO.C,JP3*%
X82945000Y-53050000D03*
X82255000Y-53050000D03*
%TD*%
%TO.C,JP1*%
X4025000Y-71650000D03*
X3335000Y-71650000D03*
%TD*%
%TO.C,JP2*%
X4025000Y-54100000D03*
X3335000Y-54100000D03*
%TD*%
D12*
%TO.C,R3*%
X52725000Y-66900000D03*
X51075000Y-66900000D03*
%TD*%
D11*
%TO.C,C1*%
X85925000Y-42900000D03*
X87475000Y-42900000D03*
%TD*%
%TO.C,C1*%
X4725000Y-24300000D03*
X6275000Y-24300000D03*
%TD*%
D12*
%TO.C,R1*%
X41125000Y-31500000D03*
X39475000Y-31500000D03*
%TD*%
D11*
%TO.C,C1*%
X39525000Y-5700000D03*
X41075000Y-5700000D03*
%TD*%
D10*
%TO.C,JP4*%
X59745000Y-72700000D03*
X59055000Y-72700000D03*
%TD*%
D11*
%TO.C,C1*%
X51125000Y-80100000D03*
X52675000Y-80100000D03*
%TD*%
D10*
%TO.C,JP2*%
X62025000Y-35500000D03*
X61335000Y-35500000D03*
%TD*%
%TO.C,JP4*%
X13345000Y-35500000D03*
X12655000Y-35500000D03*
%TD*%
D13*
%TO.C,R2*%
X32500000Y-35725000D03*
X32500000Y-34075000D03*
%TD*%
D10*
%TO.C,JP3*%
X48145000Y-53050000D03*
X47455000Y-53050000D03*
%TD*%
D11*
%TO.C,C1*%
X51125000Y-61500000D03*
X52675000Y-61500000D03*
%TD*%
D12*
%TO.C,R1*%
X6325000Y-12900000D03*
X4675000Y-12900000D03*
%TD*%
D10*
%TO.C,JP2*%
X38825000Y-35500000D03*
X38135000Y-35500000D03*
%TD*%
%TO.C,JP1*%
X50425000Y-34450000D03*
X49735000Y-34450000D03*
%TD*%
%TO.C,JP4*%
X82945000Y-54100000D03*
X82255000Y-54100000D03*
%TD*%
D12*
%TO.C,R3*%
X17925000Y-85500000D03*
X16275000Y-85500000D03*
%TD*%
D10*
%TO.C,JP3*%
X1745000Y-53050000D03*
X1055000Y-53050000D03*
%TD*%
%TO.C,JP1*%
X27225000Y-71650000D03*
X26535000Y-71650000D03*
%TD*%
%TO.C,JP3*%
X59745000Y-34450000D03*
X59055000Y-34450000D03*
%TD*%
D14*
%TO.C,C2*%
X75875000Y-40900000D03*
X74325000Y-40900000D03*
%TD*%
D11*
%TO.C,C1*%
X62725000Y-5700000D03*
X64275000Y-5700000D03*
%TD*%
D12*
%TO.C,R3*%
X75925000Y-48300000D03*
X74275000Y-48300000D03*
%TD*%
%TO.C,R3*%
X17925000Y-11100000D03*
X16275000Y-11100000D03*
%TD*%
D10*
%TO.C,JP3*%
X82945000Y-90250000D03*
X82255000Y-90250000D03*
%TD*%
D14*
%TO.C,C2*%
X29475000Y-59500000D03*
X27925000Y-59500000D03*
%TD*%
D13*
%TO.C,R2*%
X9300000Y-54325000D03*
X9300000Y-52675000D03*
%TD*%
D12*
%TO.C,R1*%
X75925000Y-87300000D03*
X74275000Y-87300000D03*
%TD*%
D10*
%TO.C,JP2*%
X73625000Y-72700000D03*
X72935000Y-72700000D03*
%TD*%
%TO.C,JP4*%
X13345000Y-72700000D03*
X12655000Y-72700000D03*
%TD*%
%TO.C,JP2*%
X15625000Y-54100000D03*
X14935000Y-54100000D03*
%TD*%
D14*
%TO.C,C2*%
X64275000Y-40900000D03*
X62725000Y-40900000D03*
%TD*%
D10*
%TO.C,JP4*%
X1745000Y-54100000D03*
X1055000Y-54100000D03*
%TD*%
%TO.C,JP2*%
X15625000Y-72700000D03*
X14935000Y-72700000D03*
%TD*%
D13*
%TO.C,R2*%
X44100000Y-17125000D03*
X44100000Y-15475000D03*
%TD*%
D10*
%TO.C,JP4*%
X71345000Y-16900000D03*
X70655000Y-16900000D03*
%TD*%
%TO.C,JP1*%
X15625000Y-90250000D03*
X14935000Y-90250000D03*
%TD*%
D12*
%TO.C,R1*%
X87525000Y-68700000D03*
X85875000Y-68700000D03*
%TD*%
D11*
%TO.C,C1*%
X85925000Y-61500000D03*
X87475000Y-61500000D03*
%TD*%
D14*
%TO.C,C2*%
X17875000Y-3700000D03*
X16325000Y-3700000D03*
%TD*%
D13*
%TO.C,R2*%
X32500000Y-72925000D03*
X32500000Y-71275000D03*
%TD*%
D10*
%TO.C,JP1*%
X85225000Y-90250000D03*
X84535000Y-90250000D03*
%TD*%
%TO.C,JP4*%
X82945000Y-16900000D03*
X82255000Y-16900000D03*
%TD*%
%TO.C,JP4*%
X13345000Y-54100000D03*
X12655000Y-54100000D03*
%TD*%
%TO.C,JP2*%
X85225000Y-16900000D03*
X84535000Y-16900000D03*
%TD*%
D12*
%TO.C,R3*%
X75925000Y-29700000D03*
X74275000Y-29700000D03*
%TD*%
D10*
%TO.C,JP4*%
X71345000Y-72700000D03*
X70655000Y-72700000D03*
%TD*%
D12*
%TO.C,R3*%
X52725000Y-48300000D03*
X51075000Y-48300000D03*
%TD*%
D13*
%TO.C,R2*%
X20900000Y-54325000D03*
X20900000Y-52675000D03*
%TD*%
D12*
%TO.C,R1*%
X41125000Y-50100000D03*
X39475000Y-50100000D03*
%TD*%
%TO.C,R3*%
X41125000Y-85500000D03*
X39475000Y-85500000D03*
%TD*%
D11*
%TO.C,C1*%
X27925000Y-80100000D03*
X29475000Y-80100000D03*
%TD*%
D10*
%TO.C,JP3*%
X36545000Y-71650000D03*
X35855000Y-71650000D03*
%TD*%
D12*
%TO.C,R3*%
X17925000Y-48300000D03*
X16275000Y-48300000D03*
%TD*%
D14*
%TO.C,C2*%
X6275000Y-78100000D03*
X4725000Y-78100000D03*
%TD*%
%TO.C,C2*%
X87475000Y-59500000D03*
X85925000Y-59500000D03*
%TD*%
%TO.C,C2*%
X6275000Y-3700000D03*
X4725000Y-3700000D03*
%TD*%
D10*
%TO.C,JP2*%
X85225000Y-54100000D03*
X84535000Y-54100000D03*
%TD*%
D11*
%TO.C,C1*%
X4725000Y-80100000D03*
X6275000Y-80100000D03*
%TD*%
%TO.C,C1*%
X85925000Y-80100000D03*
X87475000Y-80100000D03*
%TD*%
D13*
%TO.C,R2*%
X55700000Y-54325000D03*
X55700000Y-52675000D03*
%TD*%
D10*
%TO.C,JP4*%
X71345000Y-54100000D03*
X70655000Y-54100000D03*
%TD*%
D13*
%TO.C,R2*%
X32500000Y-17125000D03*
X32500000Y-15475000D03*
%TD*%
D10*
%TO.C,JP3*%
X48145000Y-15850000D03*
X47455000Y-15850000D03*
%TD*%
D12*
%TO.C,R1*%
X52725000Y-12900000D03*
X51075000Y-12900000D03*
%TD*%
D13*
%TO.C,R2*%
X32500000Y-91525000D03*
X32500000Y-89875000D03*
%TD*%
D12*
%TO.C,R3*%
X87525000Y-85500000D03*
X85875000Y-85500000D03*
%TD*%
D14*
%TO.C,C2*%
X64275000Y-59500000D03*
X62725000Y-59500000D03*
%TD*%
D12*
%TO.C,R1*%
X75925000Y-50100000D03*
X74275000Y-50100000D03*
%TD*%
D10*
%TO.C,JP3*%
X59745000Y-71650000D03*
X59055000Y-71650000D03*
%TD*%
%TO.C,JP3*%
X13345000Y-53050000D03*
X12655000Y-53050000D03*
%TD*%
%TO.C,JP3*%
X82945000Y-34450000D03*
X82255000Y-34450000D03*
%TD*%
D12*
%TO.C,R3*%
X29525000Y-85500000D03*
X27875000Y-85500000D03*
%TD*%
D10*
%TO.C,JP1*%
X4025000Y-53050000D03*
X3335000Y-53050000D03*
%TD*%
%TO.C,JP1*%
X38825000Y-71650000D03*
X38135000Y-71650000D03*
%TD*%
D12*
%TO.C,R3*%
X6325000Y-29700000D03*
X4675000Y-29700000D03*
%TD*%
%TO.C,R3*%
X87525000Y-48300000D03*
X85875000Y-48300000D03*
%TD*%
D10*
%TO.C,JP1*%
X4025000Y-90250000D03*
X3335000Y-90250000D03*
%TD*%
D12*
%TO.C,R1*%
X6325000Y-50100000D03*
X4675000Y-50100000D03*
%TD*%
D11*
%TO.C,C1*%
X27925000Y-42900000D03*
X29475000Y-42900000D03*
%TD*%
D14*
%TO.C,C2*%
X29475000Y-3700000D03*
X27925000Y-3700000D03*
%TD*%
D10*
%TO.C,JP1*%
X38825000Y-34450000D03*
X38135000Y-34450000D03*
%TD*%
D12*
%TO.C,R1*%
X87525000Y-31500000D03*
X85875000Y-31500000D03*
%TD*%
D10*
%TO.C,JP1*%
X85225000Y-71650000D03*
X84535000Y-71650000D03*
%TD*%
%TO.C,JP1*%
X73625000Y-15850000D03*
X72935000Y-15850000D03*
%TD*%
D12*
%TO.C,R3*%
X64325000Y-29700000D03*
X62675000Y-29700000D03*
%TD*%
%TO.C,R3*%
X75925000Y-66900000D03*
X74275000Y-66900000D03*
%TD*%
D10*
%TO.C,JP4*%
X1745000Y-91300000D03*
X1055000Y-91300000D03*
%TD*%
%TO.C,JP3*%
X48145000Y-34450000D03*
X47455000Y-34450000D03*
%TD*%
%TO.C,JP1*%
X15625000Y-53050000D03*
X14935000Y-53050000D03*
%TD*%
D11*
%TO.C,C1*%
X62725000Y-80100000D03*
X64275000Y-80100000D03*
%TD*%
D10*
%TO.C,JP2*%
X38825000Y-54100000D03*
X38135000Y-54100000D03*
%TD*%
%TO.C,JP3*%
X1745000Y-34450000D03*
X1055000Y-34450000D03*
%TD*%
%TO.C,JP1*%
X15625000Y-34450000D03*
X14935000Y-34450000D03*
%TD*%
%TO.C,JP1*%
X73625000Y-53050000D03*
X72935000Y-53050000D03*
%TD*%
%TO.C,JP3*%
X48145000Y-90250000D03*
X47455000Y-90250000D03*
%TD*%
D12*
%TO.C,R1*%
X41125000Y-68700000D03*
X39475000Y-68700000D03*
%TD*%
D10*
%TO.C,JP4*%
X48145000Y-91300000D03*
X47455000Y-91300000D03*
%TD*%
D13*
%TO.C,R2*%
X67300000Y-91525000D03*
X67300000Y-89875000D03*
%TD*%
D11*
%TO.C,C1*%
X27925000Y-61500000D03*
X29475000Y-61500000D03*
%TD*%
%TO.C,C1*%
X39525000Y-80100000D03*
X41075000Y-80100000D03*
%TD*%
D12*
%TO.C,R3*%
X17925000Y-66900000D03*
X16275000Y-66900000D03*
%TD*%
D10*
%TO.C,JP2*%
X50425000Y-54100000D03*
X49735000Y-54100000D03*
%TD*%
%TO.C,JP2*%
X85225000Y-91300000D03*
X84535000Y-91300000D03*
%TD*%
D13*
%TO.C,R2*%
X55700000Y-72925000D03*
X55700000Y-71275000D03*
%TD*%
D10*
%TO.C,JP4*%
X24945000Y-91300000D03*
X24255000Y-91300000D03*
%TD*%
D14*
%TO.C,C2*%
X75875000Y-3700000D03*
X74325000Y-3700000D03*
%TD*%
D13*
%TO.C,R2*%
X44100000Y-91525000D03*
X44100000Y-89875000D03*
%TD*%
D14*
%TO.C,C2*%
X87475000Y-3700000D03*
X85925000Y-3700000D03*
%TD*%
%TO.C,C2*%
X17875000Y-40900000D03*
X16325000Y-40900000D03*
%TD*%
D10*
%TO.C,JP2*%
X73625000Y-91300000D03*
X72935000Y-91300000D03*
%TD*%
D13*
%TO.C,R2*%
X20900000Y-91525000D03*
X20900000Y-89875000D03*
%TD*%
D10*
%TO.C,JP3*%
X24945000Y-90250000D03*
X24255000Y-90250000D03*
%TD*%
D11*
%TO.C,C1*%
X85925000Y-24300000D03*
X87475000Y-24300000D03*
%TD*%
D10*
%TO.C,JP2*%
X15625000Y-16900000D03*
X14935000Y-16900000D03*
%TD*%
D14*
%TO.C,C2*%
X52675000Y-40900000D03*
X51125000Y-40900000D03*
%TD*%
D12*
%TO.C,R3*%
X41125000Y-29700000D03*
X39475000Y-29700000D03*
%TD*%
D10*
%TO.C,JP2*%
X27225000Y-91300000D03*
X26535000Y-91300000D03*
%TD*%
D13*
%TO.C,R2*%
X90500000Y-54325000D03*
X90500000Y-52675000D03*
%TD*%
D10*
%TO.C,JP1*%
X50425000Y-15850000D03*
X49735000Y-15850000D03*
%TD*%
D12*
%TO.C,R1*%
X41125000Y-12900000D03*
X39475000Y-12900000D03*
%TD*%
D10*
%TO.C,JP4*%
X59745000Y-54100000D03*
X59055000Y-54100000D03*
%TD*%
D13*
%TO.C,R2*%
X9300000Y-72925000D03*
X9300000Y-71275000D03*
%TD*%
D10*
%TO.C,JP4*%
X48145000Y-72700000D03*
X47455000Y-72700000D03*
%TD*%
D12*
%TO.C,R1*%
X87525000Y-50100000D03*
X85875000Y-50100000D03*
%TD*%
D13*
%TO.C,R2*%
X20900000Y-17125000D03*
X20900000Y-15475000D03*
%TD*%
D10*
%TO.C,JP2*%
X4025000Y-16900000D03*
X3335000Y-16900000D03*
%TD*%
D12*
%TO.C,R3*%
X17925000Y-29700000D03*
X16275000Y-29700000D03*
%TD*%
%TO.C,R3*%
X29525000Y-48300000D03*
X27875000Y-48300000D03*
%TD*%
%TO.C,R1*%
X29525000Y-68700000D03*
X27875000Y-68700000D03*
%TD*%
%TO.C,R1*%
X29525000Y-31500000D03*
X27875000Y-31500000D03*
%TD*%
D10*
%TO.C,JP1*%
X38825000Y-15850000D03*
X38135000Y-15850000D03*
%TD*%
D12*
%TO.C,R1*%
X64325000Y-31500000D03*
X62675000Y-31500000D03*
%TD*%
%TO.C,R3*%
X6325000Y-48300000D03*
X4675000Y-48300000D03*
%TD*%
D14*
%TO.C,C2*%
X52675000Y-22300000D03*
X51125000Y-22300000D03*
%TD*%
%TO.C,C2*%
X41075000Y-78100000D03*
X39525000Y-78100000D03*
%TD*%
D10*
%TO.C,JP2*%
X62025000Y-91300000D03*
X61335000Y-91300000D03*
%TD*%
%TO.C,JP1*%
X62025000Y-71650000D03*
X61335000Y-71650000D03*
%TD*%
D14*
%TO.C,C2*%
X41075000Y-22300000D03*
X39525000Y-22300000D03*
%TD*%
D12*
%TO.C,R1*%
X52725000Y-68700000D03*
X51075000Y-68700000D03*
%TD*%
D14*
%TO.C,C2*%
X75875000Y-78100000D03*
X74325000Y-78100000D03*
%TD*%
D13*
%TO.C,R2*%
X9300000Y-91525000D03*
X9300000Y-89875000D03*
%TD*%
D12*
%TO.C,R3*%
X87525000Y-29700000D03*
X85875000Y-29700000D03*
%TD*%
D10*
%TO.C,JP3*%
X13345000Y-34450000D03*
X12655000Y-34450000D03*
%TD*%
D11*
%TO.C,C1*%
X51125000Y-5700000D03*
X52675000Y-5700000D03*
%TD*%
D13*
%TO.C,R2*%
X90500000Y-72925000D03*
X90500000Y-71275000D03*
%TD*%
D10*
%TO.C,JP4*%
X36545000Y-16900000D03*
X35855000Y-16900000D03*
%TD*%
D11*
%TO.C,C1*%
X39525000Y-42900000D03*
X41075000Y-42900000D03*
%TD*%
D10*
%TO.C,JP1*%
X27225000Y-90250000D03*
X26535000Y-90250000D03*
%TD*%
%TO.C,JP1*%
X85225000Y-34450000D03*
X84535000Y-34450000D03*
%TD*%
D11*
%TO.C,C1*%
X16325000Y-42900000D03*
X17875000Y-42900000D03*
%TD*%
D10*
%TO.C,JP3*%
X13345000Y-71650000D03*
X12655000Y-71650000D03*
%TD*%
D12*
%TO.C,R1*%
X52725000Y-87300000D03*
X51075000Y-87300000D03*
%TD*%
D10*
%TO.C,JP1*%
X85225000Y-53050000D03*
X84535000Y-53050000D03*
%TD*%
D13*
%TO.C,R2*%
X78900000Y-17125000D03*
X78900000Y-15475000D03*
%TD*%
D10*
%TO.C,JP3*%
X59745000Y-90250000D03*
X59055000Y-90250000D03*
%TD*%
D14*
%TO.C,C2*%
X64275000Y-3700000D03*
X62725000Y-3700000D03*
%TD*%
%TO.C,C2*%
X29475000Y-22300000D03*
X27925000Y-22300000D03*
%TD*%
%TO.C,C2*%
X6275000Y-40900000D03*
X4725000Y-40900000D03*
%TD*%
D12*
%TO.C,R3*%
X64325000Y-11100000D03*
X62675000Y-11100000D03*
%TD*%
D11*
%TO.C,C1*%
X16325000Y-61500000D03*
X17875000Y-61500000D03*
%TD*%
D10*
%TO.C,JP1*%
X4025000Y-15850000D03*
X3335000Y-15850000D03*
%TD*%
%TO.C,JP3*%
X36545000Y-15850000D03*
X35855000Y-15850000D03*
%TD*%
D12*
%TO.C,R1*%
X52725000Y-50100000D03*
X51075000Y-50100000D03*
%TD*%
D10*
%TO.C,JP1*%
X62025000Y-15850000D03*
X61335000Y-15850000D03*
%TD*%
D13*
%TO.C,R2*%
X44100000Y-35725000D03*
X44100000Y-34075000D03*
%TD*%
D14*
%TO.C,C2*%
X52675000Y-3700000D03*
X51125000Y-3700000D03*
%TD*%
D10*
%TO.C,JP3*%
X13345000Y-90250000D03*
X12655000Y-90250000D03*
%TD*%
D12*
%TO.C,R3*%
X29525000Y-66900000D03*
X27875000Y-66900000D03*
%TD*%
D10*
%TO.C,JP3*%
X71345000Y-71650000D03*
X70655000Y-71650000D03*
%TD*%
%TO.C,JP2*%
X27225000Y-16900000D03*
X26535000Y-16900000D03*
%TD*%
%TO.C,JP3*%
X71345000Y-34450000D03*
X70655000Y-34450000D03*
%TD*%
D13*
%TO.C,R2*%
X9300000Y-35725000D03*
X9300000Y-34075000D03*
%TD*%
D10*
%TO.C,JP2*%
X27225000Y-72700000D03*
X26535000Y-72700000D03*
%TD*%
D14*
%TO.C,C2*%
X52675000Y-59500000D03*
X51125000Y-59500000D03*
%TD*%
D10*
%TO.C,JP3*%
X48145000Y-71650000D03*
X47455000Y-71650000D03*
%TD*%
D14*
%TO.C,C2*%
X64275000Y-78100000D03*
X62725000Y-78100000D03*
%TD*%
D10*
%TO.C,JP1*%
X73625000Y-71650000D03*
X72935000Y-71650000D03*
%TD*%
D12*
%TO.C,R1*%
X75925000Y-31500000D03*
X74275000Y-31500000D03*
%TD*%
%TO.C,R1*%
X17925000Y-50100000D03*
X16275000Y-50100000D03*
%TD*%
%TO.C,R3*%
X64325000Y-48300000D03*
X62675000Y-48300000D03*
%TD*%
D10*
%TO.C,JP4*%
X36545000Y-35500000D03*
X35855000Y-35500000D03*
%TD*%
D14*
%TO.C,C2*%
X29475000Y-40900000D03*
X27925000Y-40900000D03*
%TD*%
D10*
%TO.C,JP4*%
X48145000Y-16900000D03*
X47455000Y-16900000D03*
%TD*%
D13*
%TO.C,R2*%
X90500000Y-91525000D03*
X90500000Y-89875000D03*
%TD*%
D14*
%TO.C,C2*%
X17875000Y-59500000D03*
X16325000Y-59500000D03*
%TD*%
D12*
%TO.C,R3*%
X6325000Y-66900000D03*
X4675000Y-66900000D03*
%TD*%
D10*
%TO.C,JP2*%
X38825000Y-72700000D03*
X38135000Y-72700000D03*
%TD*%
D13*
%TO.C,R2*%
X20900000Y-72925000D03*
X20900000Y-71275000D03*
%TD*%
D12*
%TO.C,R1*%
X29525000Y-50100000D03*
X27875000Y-50100000D03*
%TD*%
D13*
%TO.C,R2*%
X44100000Y-54325000D03*
X44100000Y-52675000D03*
%TD*%
D10*
%TO.C,JP4*%
X1745000Y-16900000D03*
X1055000Y-16900000D03*
%TD*%
%TO.C,JP2*%
X50425000Y-35500000D03*
X49735000Y-35500000D03*
%TD*%
D12*
%TO.C,R3*%
X29525000Y-29700000D03*
X27875000Y-29700000D03*
%TD*%
D14*
%TO.C,C2*%
X75875000Y-22300000D03*
X74325000Y-22300000D03*
%TD*%
D11*
%TO.C,C1*%
X51125000Y-42900000D03*
X52675000Y-42900000D03*
%TD*%
D10*
%TO.C,JP2*%
X50425000Y-72700000D03*
X49735000Y-72700000D03*
%TD*%
%TO.C,JP2*%
X27225000Y-35500000D03*
X26535000Y-35500000D03*
%TD*%
D14*
%TO.C,C2*%
X64275000Y-22300000D03*
X62725000Y-22300000D03*
%TD*%
D10*
%TO.C,JP1*%
X38825000Y-53050000D03*
X38135000Y-53050000D03*
%TD*%
%TO.C,JP3*%
X36545000Y-90250000D03*
X35855000Y-90250000D03*
%TD*%
D11*
%TO.C,C1*%
X62725000Y-42900000D03*
X64275000Y-42900000D03*
%TD*%
D12*
%TO.C,R1*%
X6325000Y-31500000D03*
X4675000Y-31500000D03*
%TD*%
D10*
%TO.C,JP4*%
X13345000Y-16900000D03*
X12655000Y-16900000D03*
%TD*%
%TO.C,JP2*%
X38825000Y-16900000D03*
X38135000Y-16900000D03*
%TD*%
%TO.C,JP3*%
X82945000Y-71650000D03*
X82255000Y-71650000D03*
%TD*%
D12*
%TO.C,R3*%
X41125000Y-11100000D03*
X39475000Y-11100000D03*
%TD*%
D11*
%TO.C,C1*%
X74325000Y-5700000D03*
X75875000Y-5700000D03*
%TD*%
D10*
%TO.C,JP1*%
X50425000Y-90250000D03*
X49735000Y-90250000D03*
%TD*%
D12*
%TO.C,R1*%
X17925000Y-31500000D03*
X16275000Y-31500000D03*
%TD*%
%TO.C,R1*%
X6325000Y-68700000D03*
X4675000Y-68700000D03*
%TD*%
%TO.C,R1*%
X41125000Y-87300000D03*
X39475000Y-87300000D03*
%TD*%
D11*
%TO.C,C1*%
X27925000Y-24300000D03*
X29475000Y-24300000D03*
%TD*%
D12*
%TO.C,R3*%
X52725000Y-11100000D03*
X51075000Y-11100000D03*
%TD*%
D11*
%TO.C,C1*%
X62725000Y-61500000D03*
X64275000Y-61500000D03*
%TD*%
D10*
%TO.C,JP4*%
X59745000Y-35500000D03*
X59055000Y-35500000D03*
%TD*%
D12*
%TO.C,R1*%
X52725000Y-31500000D03*
X51075000Y-31500000D03*
%TD*%
D10*
%TO.C,JP3*%
X1745000Y-71650000D03*
X1055000Y-71650000D03*
%TD*%
D12*
%TO.C,R1*%
X87525000Y-12900000D03*
X85875000Y-12900000D03*
%TD*%
%TO.C,R1*%
X64325000Y-87300000D03*
X62675000Y-87300000D03*
%TD*%
D11*
%TO.C,C1*%
X4725000Y-42900000D03*
X6275000Y-42900000D03*
%TD*%
D10*
%TO.C,JP3*%
X71345000Y-15850000D03*
X70655000Y-15850000D03*
%TD*%
%TO.C,JP2*%
X62025000Y-16900000D03*
X61335000Y-16900000D03*
%TD*%
%TO.C,JP2*%
X73625000Y-16900000D03*
X72935000Y-16900000D03*
%TD*%
D14*
%TO.C,C2*%
X6275000Y-59500000D03*
X4725000Y-59500000D03*
%TD*%
D10*
%TO.C,JP2*%
X4025000Y-91300000D03*
X3335000Y-91300000D03*
%TD*%
%TO.C,JP1*%
X27225000Y-53050000D03*
X26535000Y-53050000D03*
%TD*%
D11*
%TO.C,C1*%
X74325000Y-42900000D03*
X75875000Y-42900000D03*
%TD*%
D12*
%TO.C,R3*%
X64325000Y-66900000D03*
X62675000Y-66900000D03*
%TD*%
D11*
%TO.C,C1*%
X74325000Y-80100000D03*
X75875000Y-80100000D03*
%TD*%
D14*
%TO.C,C2*%
X52675000Y-78100000D03*
X51125000Y-78100000D03*
%TD*%
D13*
%TO.C,R2*%
X55700000Y-17125000D03*
X55700000Y-15475000D03*
%TD*%
D11*
%TO.C,C1*%
X39525000Y-61500000D03*
X41075000Y-61500000D03*
%TD*%
%TO.C,C1*%
X74325000Y-24300000D03*
X75875000Y-24300000D03*
%TD*%
D10*
%TO.C,JP1*%
X15625000Y-15850000D03*
X14935000Y-15850000D03*
%TD*%
%TO.C,JP4*%
X59745000Y-16900000D03*
X59055000Y-16900000D03*
%TD*%
D11*
%TO.C,C1*%
X4725000Y-61500000D03*
X6275000Y-61500000D03*
%TD*%
D14*
%TO.C,C2*%
X41075000Y-3700000D03*
X39525000Y-3700000D03*
%TD*%
D10*
%TO.C,JP1*%
X73625000Y-90250000D03*
X72935000Y-90250000D03*
%TD*%
D14*
%TO.C,C2*%
X75875000Y-59500000D03*
X74325000Y-59500000D03*
%TD*%
%TO.C,C2*%
X87475000Y-22300000D03*
X85925000Y-22300000D03*
%TD*%
%TO.C,C2*%
X41075000Y-40900000D03*
X39525000Y-40900000D03*
%TD*%
D13*
%TO.C,R2*%
X67300000Y-17125000D03*
X67300000Y-15475000D03*
%TD*%
D10*
%TO.C,JP2*%
X85225000Y-72700000D03*
X84535000Y-72700000D03*
%TD*%
D11*
%TO.C,C1*%
X16325000Y-80100000D03*
X17875000Y-80100000D03*
%TD*%
D14*
%TO.C,C2*%
X41075000Y-59500000D03*
X39525000Y-59500000D03*
%TD*%
D13*
%TO.C,R2*%
X32500000Y-54325000D03*
X32500000Y-52675000D03*
%TD*%
D10*
%TO.C,JP4*%
X36545000Y-54100000D03*
X35855000Y-54100000D03*
%TD*%
D14*
%TO.C,C2*%
X29475000Y-78100000D03*
X27925000Y-78100000D03*
%TD*%
D12*
%TO.C,R3*%
X52725000Y-85500000D03*
X51075000Y-85500000D03*
%TD*%
D10*
%TO.C,JP3*%
X24945000Y-53050000D03*
X24255000Y-53050000D03*
%TD*%
D14*
%TO.C,C2*%
X17875000Y-78100000D03*
X16325000Y-78100000D03*
%TD*%
D10*
%TO.C,JP4*%
X71345000Y-35500000D03*
X70655000Y-35500000D03*
%TD*%
%TO.C,JP2*%
X73625000Y-54100000D03*
X72935000Y-54100000D03*
%TD*%
D12*
%TO.C,R3*%
X41125000Y-48300000D03*
X39475000Y-48300000D03*
%TD*%
D10*
%TO.C,JP4*%
X82945000Y-91300000D03*
X82255000Y-91300000D03*
%TD*%
M02*
