M48
; DRILL file {KiCad 8.0.8} date 2025-03-09T21:38:22+0900
; FORMAT={-:-/ absolute / inch / decimal}
; #@! TF.CreationDate,2025-03-09T21:38:22+09:00
; #@! TF.GenerationSoftware,Kicad,Pcbnew,8.0.8
; #@! TF.FileFunction,Plated,1,2,PTH
FMAT,2
INCH
; #@! TA.AperFunction,Plated,PTH,ViaDrill
T1C0.0118
; #@! TA.AperFunction,Plated,PTH,ComponentDrill
T2C0.0394
%
G90
G05
T1
X0.0236Y-0.3622
X0.0236Y-0.5709
X0.0236Y-1.0945
X0.0236Y-1.3031
X0.0236Y-1.8268
X0.0236Y-2.0354
X0.0236Y-2.5591
X0.0236Y-2.7677
X0.0236Y-3.2913
X0.0236Y-3.5
X0.0394Y-0.0512
X0.0394Y-0.7835
X0.0394Y-1.5157
X0.0394Y-2.248
X0.0394Y-2.9803
X0.1063Y-0.2598
X0.1063Y-0.9921
X0.1063Y-1.7244
X0.1063Y-2.4567
X0.1063Y-3.189
X0.1142Y-0.1339
X0.1142Y-0.5787
X0.1142Y-0.8661
X0.1142Y-1.311
X0.1142Y-1.5984
X0.1142Y-2.0433
X0.1142Y-2.3307
X0.1142Y-2.7756
X0.1142Y-3.063
X0.1142Y-3.5079
X0.1417Y-0.2559
X0.1417Y-0.9882
X0.1417Y-1.7205
X0.1417Y-2.4528
X0.1417Y-3.185
X0.1565Y-0.3258
X0.1565Y-1.0581
X0.1565Y-1.7903
X0.1565Y-2.5226
X0.1565Y-3.2549
X0.1635Y-0.4724
X0.1635Y-1.2047
X0.1635Y-1.937
X0.1635Y-2.6693
X0.1635Y-3.4016
X0.189Y-0.626
X0.189Y-1.3583
X0.189Y-2.0906
X0.189Y-2.8228
X0.189Y-3.5551
X0.2109Y-0.3605
X0.2109Y-1.0928
X0.2109Y-1.8251
X0.2109Y-2.5574
X0.2109Y-3.2896
X0.2165Y-0.0866
X0.2165Y-0.8189
X0.2165Y-1.5512
X0.2165Y-2.2835
X0.2165Y-3.0157
X0.2244Y-0.4724
X0.2244Y-1.2047
X0.2244Y-1.937
X0.2244Y-2.6693
X0.2244Y-3.4016
X0.2392Y-0.2589
X0.2392Y-0.9912
X0.2392Y-1.7235
X0.2392Y-2.4557
X0.2392Y-3.188
X0.248Y-0.622
X0.248Y-1.3543
X0.248Y-2.0866
X0.248Y-2.8189
X0.248Y-3.5512
X0.252Y-0.6535
X0.252Y-1.3858
X0.252Y-2.1181
X0.252Y-2.8504
X0.252Y-3.5827
X0.2717Y-0.374
X0.2717Y-1.1063
X0.2717Y-1.8386
X0.2717Y-2.5709
X0.2717Y-3.3031
X0.2736Y-0.3255
X0.2736Y-1.0578
X0.2736Y-1.7901
X0.2736Y-2.5224
X0.2736Y-3.2547
X0.2854Y-0.4469
X0.2854Y-1.1791
X0.2854Y-1.9114
X0.2854Y-2.6437
X0.2854Y-3.376
X0.2916Y-0.2599
X0.2916Y-0.9921
X0.2916Y-1.7244
X0.2916Y-2.4567
X0.2916Y-3.189
X0.3071Y-0.4764
X0.3071Y-1.2087
X0.3071Y-1.9409
X0.3071Y-2.6732
X0.3071Y-3.4055
X0.3107Y-0.0676
X0.3107Y-0.7999
X0.3107Y-1.5322
X0.3107Y-2.2645
X0.3107Y-2.9968
X0.3307Y-0.1024
X0.3307Y-0.8346
X0.3307Y-1.5669
X0.3307Y-2.2992
X0.3307Y-3.0315
X0.3346Y-0.5709
X0.3346Y-1.3031
X0.3346Y-2.0354
X0.3346Y-2.7677
X0.3346Y-3.5
X0.3377Y-0.3553
X0.3377Y-1.0876
X0.3377Y-1.8199
X0.3377Y-2.5521
X0.3377Y-3.2844
X0.3425Y-0.1457
X0.3425Y-0.878
X0.3425Y-1.6102
X0.3425Y-2.3425
X0.3425Y-3.0748
X0.3976Y-0.0276
X0.3976Y-0.7598
X0.3976Y-1.4921
X0.3976Y-2.2244
X0.3976Y-2.9567
X0.4094Y-0.6772
X0.4094Y-1.4094
X0.4094Y-2.1417
X0.4094Y-2.874
X0.4094Y-3.6063
X0.4803Y-0.3622
X0.4803Y-0.5709
X0.4803Y-1.0945
X0.4803Y-1.3031
X0.4803Y-1.8268
X0.4803Y-2.0354
X0.4803Y-2.5591
X0.4803Y-2.7677
X0.4803Y-3.2913
X0.4803Y-3.5
X0.4961Y-0.0512
X0.4961Y-0.7835
X0.4961Y-1.5157
X0.4961Y-2.248
X0.4961Y-2.9803
X0.563Y-0.2598
X0.563Y-0.9921
X0.563Y-1.7244
X0.563Y-2.4567
X0.563Y-3.189
X0.5709Y-0.1339
X0.5709Y-0.5787
X0.5709Y-0.8661
X0.5709Y-1.311
X0.5709Y-1.5984
X0.5709Y-2.0433
X0.5709Y-2.3307
X0.5709Y-2.7756
X0.5709Y-3.063
X0.5709Y-3.5079
X0.5984Y-0.2559
X0.5984Y-0.9882
X0.5984Y-1.7205
X0.5984Y-2.4528
X0.5984Y-3.185
X0.6132Y-0.3258
X0.6132Y-1.0581
X0.6132Y-1.7903
X0.6132Y-2.5226
X0.6132Y-3.2549
X0.6202Y-0.4724
X0.6202Y-1.2047
X0.6202Y-1.937
X0.6202Y-2.6693
X0.6202Y-3.4016
X0.6457Y-0.626
X0.6457Y-1.3583
X0.6457Y-2.0906
X0.6457Y-2.8228
X0.6457Y-3.5551
X0.6676Y-0.3605
X0.6676Y-1.0928
X0.6676Y-1.8251
X0.6676Y-2.5574
X0.6676Y-3.2896
X0.6732Y-0.0866
X0.6732Y-0.8189
X0.6732Y-1.5512
X0.6732Y-2.2835
X0.6732Y-3.0157
X0.6811Y-0.4724
X0.6811Y-1.2047
X0.6811Y-1.937
X0.6811Y-2.6693
X0.6811Y-3.4016
X0.6959Y-0.2589
X0.6959Y-0.9912
X0.6959Y-1.7235
X0.6959Y-2.4557
X0.6959Y-3.188
X0.7047Y-0.622
X0.7047Y-1.3543
X0.7047Y-2.0866
X0.7047Y-2.8189
X0.7047Y-3.5512
X0.7087Y-0.6535
X0.7087Y-1.3858
X0.7087Y-2.1181
X0.7087Y-2.8504
X0.7087Y-3.5827
X0.7283Y-0.374
X0.7283Y-1.1063
X0.7283Y-1.8386
X0.7283Y-2.5709
X0.7283Y-3.3031
X0.7303Y-0.3255
X0.7303Y-1.0578
X0.7303Y-1.7901
X0.7303Y-2.5224
X0.7303Y-3.2547
X0.7421Y-0.4469
X0.7421Y-1.1791
X0.7421Y-1.9114
X0.7421Y-2.6437
X0.7421Y-3.376
X0.7483Y-0.2599
X0.7483Y-0.9921
X0.7483Y-1.7244
X0.7483Y-2.4567
X0.7483Y-3.189
X0.7638Y-0.4764
X0.7638Y-1.2087
X0.7638Y-1.9409
X0.7638Y-2.6732
X0.7638Y-3.4055
X0.7674Y-0.0676
X0.7674Y-0.7999
X0.7674Y-1.5322
X0.7674Y-2.2645
X0.7674Y-2.9968
X0.7874Y-0.1024
X0.7874Y-0.8346
X0.7874Y-1.5669
X0.7874Y-2.2992
X0.7874Y-3.0315
X0.7913Y-0.5709
X0.7913Y-1.3031
X0.7913Y-2.0354
X0.7913Y-2.7677
X0.7913Y-3.5
X0.7944Y-0.3553
X0.7944Y-1.0876
X0.7944Y-1.8199
X0.7944Y-2.5521
X0.7944Y-3.2844
X0.7992Y-0.1457
X0.7992Y-0.878
X0.7992Y-1.6102
X0.7992Y-2.3425
X0.7992Y-3.0748
X0.8543Y-0.0276
X0.8543Y-0.7598
X0.8543Y-1.4921
X0.8543Y-2.2244
X0.8543Y-2.9567
X0.8661Y-0.6772
X0.8661Y-1.4094
X0.8661Y-2.1417
X0.8661Y-2.874
X0.8661Y-3.6063
X0.937Y-0.3622
X0.937Y-0.5709
X0.937Y-1.0945
X0.937Y-1.3031
X0.937Y-1.8268
X0.937Y-2.0354
X0.937Y-2.5591
X0.937Y-2.7677
X0.937Y-3.2913
X0.937Y-3.5
X0.9528Y-0.0512
X0.9528Y-0.7835
X0.9528Y-1.5157
X0.9528Y-2.248
X0.9528Y-2.9803
X1.0197Y-0.2598
X1.0197Y-0.9921
X1.0197Y-1.7244
X1.0197Y-2.4567
X1.0197Y-3.189
X1.0276Y-0.1339
X1.0276Y-0.5787
X1.0276Y-0.8661
X1.0276Y-1.311
X1.0276Y-1.5984
X1.0276Y-2.0433
X1.0276Y-2.3307
X1.0276Y-2.7756
X1.0276Y-3.063
X1.0276Y-3.5079
X1.0551Y-0.2559
X1.0551Y-0.9882
X1.0551Y-1.7205
X1.0551Y-2.4528
X1.0551Y-3.185
X1.0699Y-0.3258
X1.0699Y-1.0581
X1.0699Y-1.7903
X1.0699Y-2.5226
X1.0699Y-3.2549
X1.0769Y-0.4724
X1.0769Y-1.2047
X1.0769Y-1.937
X1.0769Y-2.6693
X1.0769Y-3.4016
X1.1024Y-0.626
X1.1024Y-1.3583
X1.1024Y-2.0906
X1.1024Y-2.8228
X1.1024Y-3.5551
X1.1243Y-0.3605
X1.1243Y-1.0928
X1.1243Y-1.8251
X1.1243Y-2.5574
X1.1243Y-3.2896
X1.1299Y-0.0866
X1.1299Y-0.8189
X1.1299Y-1.5512
X1.1299Y-2.2835
X1.1299Y-3.0157
X1.1378Y-0.4724
X1.1378Y-1.2047
X1.1378Y-1.937
X1.1378Y-2.6693
X1.1378Y-3.4016
X1.1526Y-0.2589
X1.1526Y-0.9912
X1.1526Y-1.7235
X1.1526Y-2.4557
X1.1526Y-3.188
X1.1614Y-0.622
X1.1614Y-1.3543
X1.1614Y-2.0866
X1.1614Y-2.8189
X1.1614Y-3.5512
X1.1654Y-0.6535
X1.1654Y-1.3858
X1.1654Y-2.1181
X1.1654Y-2.8504
X1.1654Y-3.5827
X1.185Y-0.374
X1.185Y-1.1063
X1.185Y-1.8386
X1.185Y-2.5709
X1.185Y-3.3031
X1.187Y-0.3255
X1.187Y-1.0578
X1.187Y-1.7901
X1.187Y-2.5224
X1.187Y-3.2547
X1.1988Y-0.4469
X1.1988Y-1.1791
X1.1988Y-1.9114
X1.1988Y-2.6437
X1.1988Y-3.376
X1.205Y-0.2599
X1.205Y-0.9921
X1.205Y-1.7244
X1.205Y-2.4567
X1.205Y-3.189
X1.2205Y-0.4764
X1.2205Y-1.2087
X1.2205Y-1.9409
X1.2205Y-2.6732
X1.2205Y-3.4055
X1.2241Y-0.0676
X1.2241Y-0.7999
X1.2241Y-1.5322
X1.2241Y-2.2645
X1.2241Y-2.9968
X1.2441Y-0.1024
X1.2441Y-0.8346
X1.2441Y-1.5669
X1.2441Y-2.2992
X1.2441Y-3.0315
X1.248Y-0.5709
X1.248Y-1.3031
X1.248Y-2.0354
X1.248Y-2.7677
X1.248Y-3.5
X1.2511Y-0.3553
X1.2511Y-1.0876
X1.2511Y-1.8199
X1.2511Y-2.5521
X1.2511Y-3.2844
X1.2559Y-0.1457
X1.2559Y-0.878
X1.2559Y-1.6102
X1.2559Y-2.3425
X1.2559Y-3.0748
X1.311Y-0.0276
X1.311Y-0.7598
X1.311Y-1.4921
X1.311Y-2.2244
X1.311Y-2.9567
X1.3228Y-0.6772
X1.3228Y-1.4094
X1.3228Y-2.1417
X1.3228Y-2.874
X1.3228Y-3.6063
X1.3937Y-0.3622
X1.3937Y-0.5709
X1.3937Y-1.0945
X1.3937Y-1.3031
X1.3937Y-1.8268
X1.3937Y-2.0354
X1.3937Y-2.5591
X1.3937Y-2.7677
X1.3937Y-3.2913
X1.3937Y-3.5
X1.4094Y-0.0512
X1.4094Y-0.7835
X1.4094Y-1.5157
X1.4094Y-2.248
X1.4094Y-2.9803
X1.4764Y-0.2598
X1.4764Y-0.9921
X1.4764Y-1.7244
X1.4764Y-2.4567
X1.4764Y-3.189
X1.4843Y-0.1339
X1.4843Y-0.5787
X1.4843Y-0.8661
X1.4843Y-1.311
X1.4843Y-1.5984
X1.4843Y-2.0433
X1.4843Y-2.3307
X1.4843Y-2.7756
X1.4843Y-3.063
X1.4843Y-3.5079
X1.5118Y-0.2559
X1.5118Y-0.9882
X1.5118Y-1.7205
X1.5118Y-2.4528
X1.5118Y-3.185
X1.5266Y-0.3258
X1.5266Y-1.0581
X1.5266Y-1.7903
X1.5266Y-2.5226
X1.5266Y-3.2549
X1.5336Y-0.4724
X1.5336Y-1.2047
X1.5336Y-1.937
X1.5336Y-2.6693
X1.5336Y-3.4016
X1.5591Y-0.626
X1.5591Y-1.3583
X1.5591Y-2.0906
X1.5591Y-2.8228
X1.5591Y-3.5551
X1.581Y-0.3605
X1.581Y-1.0928
X1.581Y-1.8251
X1.581Y-2.5574
X1.581Y-3.2896
X1.5866Y-0.0866
X1.5866Y-0.8189
X1.5866Y-1.5512
X1.5866Y-2.2835
X1.5866Y-3.0157
X1.5945Y-0.4724
X1.5945Y-1.2047
X1.5945Y-1.937
X1.5945Y-2.6693
X1.5945Y-3.4016
X1.6093Y-0.2589
X1.6093Y-0.9912
X1.6093Y-1.7235
X1.6093Y-2.4557
X1.6093Y-3.188
X1.6181Y-0.622
X1.6181Y-1.3543
X1.6181Y-2.0866
X1.6181Y-2.8189
X1.6181Y-3.5512
X1.622Y-0.6535
X1.622Y-1.3858
X1.622Y-2.1181
X1.622Y-2.8504
X1.622Y-3.5827
X1.6417Y-0.374
X1.6417Y-1.1063
X1.6417Y-1.8386
X1.6417Y-2.5709
X1.6417Y-3.3031
X1.6437Y-0.3255
X1.6437Y-1.0578
X1.6437Y-1.7901
X1.6437Y-2.5224
X1.6437Y-3.2547
X1.6555Y-0.4469
X1.6555Y-1.1791
X1.6555Y-1.9114
X1.6555Y-2.6437
X1.6555Y-3.376
X1.6617Y-0.2599
X1.6617Y-0.9921
X1.6617Y-1.7244
X1.6617Y-2.4567
X1.6617Y-3.189
X1.6772Y-0.4764
X1.6772Y-1.2087
X1.6772Y-1.9409
X1.6772Y-2.6732
X1.6772Y-3.4055
X1.6808Y-0.0676
X1.6808Y-0.7999
X1.6808Y-1.5322
X1.6808Y-2.2645
X1.6808Y-2.9968
X1.7008Y-0.1024
X1.7008Y-0.8346
X1.7008Y-1.5669
X1.7008Y-2.2992
X1.7008Y-3.0315
X1.7047Y-0.5709
X1.7047Y-1.3031
X1.7047Y-2.0354
X1.7047Y-2.7677
X1.7047Y-3.5
X1.7078Y-0.3553
X1.7078Y-1.0876
X1.7078Y-1.8199
X1.7078Y-2.5521
X1.7078Y-3.2844
X1.7126Y-0.1457
X1.7126Y-0.878
X1.7126Y-1.6102
X1.7126Y-2.3425
X1.7126Y-3.0748
X1.7677Y-0.0276
X1.7677Y-0.7598
X1.7677Y-1.4921
X1.7677Y-2.2244
X1.7677Y-2.9567
X1.7795Y-0.6772
X1.7795Y-1.4094
X1.7795Y-2.1417
X1.7795Y-2.874
X1.7795Y-3.6063
X1.8504Y-0.3622
X1.8504Y-0.5709
X1.8504Y-1.0945
X1.8504Y-1.3031
X1.8504Y-1.8268
X1.8504Y-2.0354
X1.8504Y-2.5591
X1.8504Y-2.7677
X1.8504Y-3.2913
X1.8504Y-3.5
X1.8661Y-0.0512
X1.8661Y-0.7835
X1.8661Y-1.5157
X1.8661Y-2.248
X1.8661Y-2.9803
X1.9331Y-0.2598
X1.9331Y-0.9921
X1.9331Y-1.7244
X1.9331Y-2.4567
X1.9331Y-3.189
X1.9409Y-0.1339
X1.9409Y-0.5787
X1.9409Y-0.8661
X1.9409Y-1.311
X1.9409Y-1.5984
X1.9409Y-2.0433
X1.9409Y-2.3307
X1.9409Y-2.7756
X1.9409Y-3.063
X1.9409Y-3.5079
X1.9685Y-0.2559
X1.9685Y-0.9882
X1.9685Y-1.7205
X1.9685Y-2.4528
X1.9685Y-3.185
X1.9832Y-0.3258
X1.9832Y-1.0581
X1.9832Y-1.7903
X1.9832Y-2.5226
X1.9832Y-3.2549
X1.9903Y-0.4724
X1.9903Y-1.2047
X1.9903Y-1.937
X1.9903Y-2.6693
X1.9903Y-3.4016
X2.0157Y-0.626
X2.0157Y-1.3583
X2.0157Y-2.0906
X2.0157Y-2.8228
X2.0157Y-3.5551
X2.0377Y-0.3605
X2.0377Y-1.0928
X2.0377Y-1.8251
X2.0377Y-2.5574
X2.0377Y-3.2896
X2.0433Y-0.0866
X2.0433Y-0.8189
X2.0433Y-1.5512
X2.0433Y-2.2835
X2.0433Y-3.0157
X2.0512Y-0.4724
X2.0512Y-1.2047
X2.0512Y-1.937
X2.0512Y-2.6693
X2.0512Y-3.4016
X2.066Y-0.2589
X2.066Y-0.9912
X2.066Y-1.7235
X2.066Y-2.4557
X2.066Y-3.188
X2.0748Y-0.622
X2.0748Y-1.3543
X2.0748Y-2.0866
X2.0748Y-2.8189
X2.0748Y-3.5512
X2.0787Y-0.6535
X2.0787Y-1.3858
X2.0787Y-2.1181
X2.0787Y-2.8504
X2.0787Y-3.5827
X2.0984Y-0.374
X2.0984Y-1.1063
X2.0984Y-1.8386
X2.0984Y-2.5709
X2.0984Y-3.3031
X2.1004Y-0.3255
X2.1004Y-1.0578
X2.1004Y-1.7901
X2.1004Y-2.5224
X2.1004Y-3.2547
X2.1122Y-0.4469
X2.1122Y-1.1791
X2.1122Y-1.9114
X2.1122Y-2.6437
X2.1122Y-3.376
X2.1184Y-0.2599
X2.1184Y-0.9921
X2.1184Y-1.7244
X2.1184Y-2.4567
X2.1184Y-3.189
X2.1339Y-0.4764
X2.1339Y-1.2087
X2.1339Y-1.9409
X2.1339Y-2.6732
X2.1339Y-3.4055
X2.1375Y-0.0676
X2.1375Y-0.7999
X2.1375Y-1.5322
X2.1375Y-2.2645
X2.1375Y-2.9968
X2.1575Y-0.1024
X2.1575Y-0.8346
X2.1575Y-1.5669
X2.1575Y-2.2992
X2.1575Y-3.0315
X2.1614Y-0.5709
X2.1614Y-1.3031
X2.1614Y-2.0354
X2.1614Y-2.7677
X2.1614Y-3.5
X2.1645Y-0.3553
X2.1645Y-1.0876
X2.1645Y-1.8199
X2.1645Y-2.5521
X2.1645Y-3.2844
X2.1693Y-0.1457
X2.1693Y-0.878
X2.1693Y-1.6102
X2.1693Y-2.3425
X2.1693Y-3.0748
X2.2244Y-0.0276
X2.2244Y-0.7598
X2.2244Y-1.4921
X2.2244Y-2.2244
X2.2244Y-2.9567
X2.2362Y-0.6772
X2.2362Y-1.4094
X2.2362Y-2.1417
X2.2362Y-2.874
X2.2362Y-3.6063
X2.3071Y-0.3622
X2.3071Y-0.5709
X2.3071Y-1.0945
X2.3071Y-1.3031
X2.3071Y-1.8268
X2.3071Y-2.0354
X2.3071Y-2.5591
X2.3071Y-2.7677
X2.3071Y-3.2913
X2.3071Y-3.5
X2.3228Y-0.0512
X2.3228Y-0.7835
X2.3228Y-1.5157
X2.3228Y-2.248
X2.3228Y-2.9803
X2.3898Y-0.2598
X2.3898Y-0.9921
X2.3898Y-1.7244
X2.3898Y-2.4567
X2.3898Y-3.189
X2.3976Y-0.1339
X2.3976Y-0.5787
X2.3976Y-0.8661
X2.3976Y-1.311
X2.3976Y-1.5984
X2.3976Y-2.0433
X2.3976Y-2.3307
X2.3976Y-2.7756
X2.3976Y-3.063
X2.3976Y-3.5079
X2.4252Y-0.2559
X2.4252Y-0.9882
X2.4252Y-1.7205
X2.4252Y-2.4528
X2.4252Y-3.185
X2.4399Y-0.3258
X2.4399Y-1.0581
X2.4399Y-1.7903
X2.4399Y-2.5226
X2.4399Y-3.2549
X2.447Y-0.4724
X2.447Y-1.2047
X2.447Y-1.937
X2.447Y-2.6693
X2.447Y-3.4016
X2.4724Y-0.626
X2.4724Y-1.3583
X2.4724Y-2.0906
X2.4724Y-2.8228
X2.4724Y-3.5551
X2.4944Y-0.3605
X2.4944Y-1.0928
X2.4944Y-1.8251
X2.4944Y-2.5574
X2.4944Y-3.2896
X2.5Y-0.0866
X2.5Y-0.8189
X2.5Y-1.5512
X2.5Y-2.2835
X2.5Y-3.0157
X2.5079Y-0.4724
X2.5079Y-1.2047
X2.5079Y-1.937
X2.5079Y-2.6693
X2.5079Y-3.4016
X2.5227Y-0.2589
X2.5227Y-0.9912
X2.5227Y-1.7235
X2.5227Y-2.4557
X2.5227Y-3.188
X2.5315Y-0.622
X2.5315Y-1.3543
X2.5315Y-2.0866
X2.5315Y-2.8189
X2.5315Y-3.5512
X2.5354Y-0.6535
X2.5354Y-1.3858
X2.5354Y-2.1181
X2.5354Y-2.8504
X2.5354Y-3.5827
X2.5551Y-0.374
X2.5551Y-1.1063
X2.5551Y-1.8386
X2.5551Y-2.5709
X2.5551Y-3.3031
X2.5571Y-0.3255
X2.5571Y-1.0578
X2.5571Y-1.7901
X2.5571Y-2.5224
X2.5571Y-3.2547
X2.5689Y-0.4469
X2.5689Y-1.1791
X2.5689Y-1.9114
X2.5689Y-2.6437
X2.5689Y-3.376
X2.575Y-0.2599
X2.575Y-0.9921
X2.575Y-1.7244
X2.575Y-2.4567
X2.575Y-3.189
X2.5906Y-0.4764
X2.5906Y-1.2087
X2.5906Y-1.9409
X2.5906Y-2.6732
X2.5906Y-3.4055
X2.5942Y-0.0676
X2.5942Y-0.7999
X2.5942Y-1.5322
X2.5942Y-2.2645
X2.5942Y-2.9968
X2.6142Y-0.1024
X2.6142Y-0.8346
X2.6142Y-1.5669
X2.6142Y-2.2992
X2.6142Y-3.0315
X2.6181Y-0.5709
X2.6181Y-1.3031
X2.6181Y-2.0354
X2.6181Y-2.7677
X2.6181Y-3.5
X2.6212Y-0.3553
X2.6212Y-1.0876
X2.6212Y-1.8199
X2.6212Y-2.5521
X2.6212Y-3.2844
X2.626Y-0.1457
X2.626Y-0.878
X2.626Y-1.6102
X2.626Y-2.3425
X2.626Y-3.0748
X2.6811Y-0.0276
X2.6811Y-0.7598
X2.6811Y-1.4921
X2.6811Y-2.2244
X2.6811Y-2.9567
X2.6929Y-0.6772
X2.6929Y-1.4094
X2.6929Y-2.1417
X2.6929Y-2.874
X2.6929Y-3.6063
X2.7638Y-0.3622
X2.7638Y-0.5709
X2.7638Y-1.0945
X2.7638Y-1.3031
X2.7638Y-1.8268
X2.7638Y-2.0354
X2.7638Y-2.5591
X2.7638Y-2.7677
X2.7638Y-3.2913
X2.7638Y-3.5
X2.7795Y-0.0512
X2.7795Y-0.7835
X2.7795Y-1.5157
X2.7795Y-2.248
X2.7795Y-2.9803
X2.8465Y-0.2598
X2.8465Y-0.9921
X2.8465Y-1.7244
X2.8465Y-2.4567
X2.8465Y-3.189
X2.8543Y-0.1339
X2.8543Y-0.5787
X2.8543Y-0.8661
X2.8543Y-1.311
X2.8543Y-1.5984
X2.8543Y-2.0433
X2.8543Y-2.3307
X2.8543Y-2.7756
X2.8543Y-3.063
X2.8543Y-3.5079
X2.8819Y-0.2559
X2.8819Y-0.9882
X2.8819Y-1.7205
X2.8819Y-2.4528
X2.8819Y-3.185
X2.8966Y-0.3258
X2.8966Y-1.0581
X2.8966Y-1.7903
X2.8966Y-2.5226
X2.8966Y-3.2549
X2.9037Y-0.4724
X2.9037Y-1.2047
X2.9037Y-1.937
X2.9037Y-2.6693
X2.9037Y-3.4016
X2.9291Y-0.626
X2.9291Y-1.3583
X2.9291Y-2.0906
X2.9291Y-2.8228
X2.9291Y-3.5551
X2.9511Y-0.3605
X2.9511Y-1.0928
X2.9511Y-1.8251
X2.9511Y-2.5574
X2.9511Y-3.2896
X2.9567Y-0.0866
X2.9567Y-0.8189
X2.9567Y-1.5512
X2.9567Y-2.2835
X2.9567Y-3.0157
X2.9646Y-0.4724
X2.9646Y-1.2047
X2.9646Y-1.937
X2.9646Y-2.6693
X2.9646Y-3.4016
X2.9794Y-0.2589
X2.9794Y-0.9912
X2.9794Y-1.7235
X2.9794Y-2.4557
X2.9794Y-3.188
X2.9882Y-0.622
X2.9882Y-1.3543
X2.9882Y-2.0866
X2.9882Y-2.8189
X2.9882Y-3.5512
X2.9921Y-0.6535
X2.9921Y-1.3858
X2.9921Y-2.1181
X2.9921Y-2.8504
X2.9921Y-3.5827
X3.0118Y-0.374
X3.0118Y-1.1063
X3.0118Y-1.8386
X3.0118Y-2.5709
X3.0118Y-3.3031
X3.0138Y-0.3255
X3.0138Y-1.0578
X3.0138Y-1.7901
X3.0138Y-2.5224
X3.0138Y-3.2547
X3.0256Y-0.4469
X3.0256Y-1.1791
X3.0256Y-1.9114
X3.0256Y-2.6437
X3.0256Y-3.376
X3.0317Y-0.2599
X3.0317Y-0.9921
X3.0317Y-1.7244
X3.0317Y-2.4567
X3.0317Y-3.189
X3.0472Y-0.4764
X3.0472Y-1.2087
X3.0472Y-1.9409
X3.0472Y-2.6732
X3.0472Y-3.4055
X3.0509Y-0.0676
X3.0509Y-0.7999
X3.0509Y-1.5322
X3.0509Y-2.2645
X3.0509Y-2.9968
X3.0709Y-0.1024
X3.0709Y-0.8346
X3.0709Y-1.5669
X3.0709Y-2.2992
X3.0709Y-3.0315
X3.0748Y-0.5709
X3.0748Y-1.3031
X3.0748Y-2.0354
X3.0748Y-2.7677
X3.0748Y-3.5
X3.0779Y-0.3553
X3.0779Y-1.0876
X3.0779Y-1.8199
X3.0779Y-2.5521
X3.0779Y-3.2844
X3.0827Y-0.1457
X3.0827Y-0.878
X3.0827Y-1.6102
X3.0827Y-2.3425
X3.0827Y-3.0748
X3.1378Y-0.0276
X3.1378Y-0.7598
X3.1378Y-1.4921
X3.1378Y-2.2244
X3.1378Y-2.9567
X3.1496Y-0.6772
X3.1496Y-1.4094
X3.1496Y-2.1417
X3.1496Y-2.874
X3.1496Y-3.6063
X3.2205Y-0.3622
X3.2205Y-0.5709
X3.2205Y-1.0945
X3.2205Y-1.3031
X3.2205Y-1.8268
X3.2205Y-2.0354
X3.2205Y-2.5591
X3.2205Y-2.7677
X3.2205Y-3.2913
X3.2205Y-3.5
X3.2362Y-0.0512
X3.2362Y-0.7835
X3.2362Y-1.5157
X3.2362Y-2.248
X3.2362Y-2.9803
X3.3031Y-0.2598
X3.3031Y-0.9921
X3.3031Y-1.7244
X3.3031Y-2.4567
X3.3031Y-3.189
X3.311Y-0.1339
X3.311Y-0.5787
X3.311Y-0.8661
X3.311Y-1.311
X3.311Y-1.5984
X3.311Y-2.0433
X3.311Y-2.3307
X3.311Y-2.7756
X3.311Y-3.063
X3.311Y-3.5079
X3.3386Y-0.2559
X3.3386Y-0.9882
X3.3386Y-1.7205
X3.3386Y-2.4528
X3.3386Y-3.185
X3.3533Y-0.3258
X3.3533Y-1.0581
X3.3533Y-1.7903
X3.3533Y-2.5226
X3.3533Y-3.2549
X3.3604Y-0.4724
X3.3604Y-1.2047
X3.3604Y-1.937
X3.3604Y-2.6693
X3.3604Y-3.4016
X3.3858Y-0.626
X3.3858Y-1.3583
X3.3858Y-2.0906
X3.3858Y-2.8228
X3.3858Y-3.5551
X3.4078Y-0.3605
X3.4078Y-1.0928
X3.4078Y-1.8251
X3.4078Y-2.5574
X3.4078Y-3.2896
X3.4134Y-0.0866
X3.4134Y-0.8189
X3.4134Y-1.5512
X3.4134Y-2.2835
X3.4134Y-3.0157
X3.4213Y-0.4724
X3.4213Y-1.2047
X3.4213Y-1.937
X3.4213Y-2.6693
X3.4213Y-3.4016
X3.4361Y-0.2589
X3.4361Y-0.9912
X3.4361Y-1.7235
X3.4361Y-2.4557
X3.4361Y-3.188
X3.4449Y-0.622
X3.4449Y-1.3543
X3.4449Y-2.0866
X3.4449Y-2.8189
X3.4449Y-3.5512
X3.4488Y-0.6535
X3.4488Y-1.3858
X3.4488Y-2.1181
X3.4488Y-2.8504
X3.4488Y-3.5827
X3.4685Y-0.374
X3.4685Y-1.1063
X3.4685Y-1.8386
X3.4685Y-2.5709
X3.4685Y-3.3031
X3.4705Y-0.3255
X3.4705Y-1.0578
X3.4705Y-1.7901
X3.4705Y-2.5224
X3.4705Y-3.2547
X3.4823Y-0.4469
X3.4823Y-1.1791
X3.4823Y-1.9114
X3.4823Y-2.6437
X3.4823Y-3.376
X3.4884Y-0.2599
X3.4884Y-0.9921
X3.4884Y-1.7244
X3.4884Y-2.4567
X3.4884Y-3.189
X3.5039Y-0.4764
X3.5039Y-1.2087
X3.5039Y-1.9409
X3.5039Y-2.6732
X3.5039Y-3.4055
X3.5076Y-0.0676
X3.5076Y-0.7999
X3.5076Y-1.5322
X3.5076Y-2.2645
X3.5076Y-2.9968
X3.5276Y-0.1024
X3.5276Y-0.8346
X3.5276Y-1.5669
X3.5276Y-2.2992
X3.5276Y-3.0315
X3.5315Y-0.5709
X3.5315Y-1.3031
X3.5315Y-2.0354
X3.5315Y-2.7677
X3.5315Y-3.5
X3.5346Y-0.3553
X3.5346Y-1.0876
X3.5346Y-1.8199
X3.5346Y-2.5521
X3.5346Y-3.2844
X3.5394Y-0.1457
X3.5394Y-0.878
X3.5394Y-1.6102
X3.5394Y-2.3425
X3.5394Y-3.0748
X3.5945Y-0.0276
X3.5945Y-0.7598
X3.5945Y-1.4921
X3.5945Y-2.2244
X3.5945Y-2.9567
X3.6063Y-0.6772
X3.6063Y-1.4094
X3.6063Y-2.1417
X3.6063Y-2.874
X3.6063Y-3.6063
T2
X0.0665Y-0.2043
X0.0665Y-0.3043
X0.0665Y-0.4043
X0.0665Y-0.5043
X0.0665Y-0.9366
X0.0665Y-1.0366
X0.0665Y-1.1366
X0.0665Y-1.2366
X0.0665Y-1.6689
X0.0665Y-1.7689
X0.0665Y-1.8689
X0.0665Y-1.9689
X0.0665Y-2.4012
X0.0665Y-2.5012
X0.0665Y-2.6012
X0.0665Y-2.7012
X0.0665Y-3.1335
X0.0665Y-3.2335
X0.0665Y-3.3335
X0.0665Y-3.4335
X0.3665Y-0.2043
X0.3665Y-0.3043
X0.3665Y-0.4043
X0.3665Y-0.5043
X0.3665Y-0.9366
X0.3665Y-1.0366
X0.3665Y-1.1366
X0.3665Y-1.2366
X0.3665Y-1.6689
X0.3665Y-1.7689
X0.3665Y-1.8689
X0.3665Y-1.9689
X0.3665Y-2.4012
X0.3665Y-2.5012
X0.3665Y-2.6012
X0.3665Y-2.7012
X0.3665Y-3.1335
X0.3665Y-3.2335
X0.3665Y-3.3335
X0.3665Y-3.4335
X0.5232Y-0.2043
X0.5232Y-0.3043
X0.5232Y-0.4043
X0.5232Y-0.5043
X0.5232Y-0.9366
X0.5232Y-1.0366
X0.5232Y-1.1366
X0.5232Y-1.2366
X0.5232Y-1.6689
X0.5232Y-1.7689
X0.5232Y-1.8689
X0.5232Y-1.9689
X0.5232Y-2.4012
X0.5232Y-2.5012
X0.5232Y-2.6012
X0.5232Y-2.7012
X0.5232Y-3.1335
X0.5232Y-3.2335
X0.5232Y-3.3335
X0.5232Y-3.4335
X0.8232Y-0.2043
X0.8232Y-0.3043
X0.8232Y-0.4043
X0.8232Y-0.5043
X0.8232Y-0.9366
X0.8232Y-1.0366
X0.8232Y-1.1366
X0.8232Y-1.2366
X0.8232Y-1.6689
X0.8232Y-1.7689
X0.8232Y-1.8689
X0.8232Y-1.9689
X0.8232Y-2.4012
X0.8232Y-2.5012
X0.8232Y-2.6012
X0.8232Y-2.7012
X0.8232Y-3.1335
X0.8232Y-3.2335
X0.8232Y-3.3335
X0.8232Y-3.4335
X0.9799Y-0.2043
X0.9799Y-0.3043
X0.9799Y-0.4043
X0.9799Y-0.5043
X0.9799Y-0.9366
X0.9799Y-1.0366
X0.9799Y-1.1366
X0.9799Y-1.2366
X0.9799Y-1.6689
X0.9799Y-1.7689
X0.9799Y-1.8689
X0.9799Y-1.9689
X0.9799Y-2.4012
X0.9799Y-2.5012
X0.9799Y-2.6012
X0.9799Y-2.7012
X0.9799Y-3.1335
X0.9799Y-3.2335
X0.9799Y-3.3335
X0.9799Y-3.4335
X1.2799Y-0.2043
X1.2799Y-0.3043
X1.2799Y-0.4043
X1.2799Y-0.5043
X1.2799Y-0.9366
X1.2799Y-1.0366
X1.2799Y-1.1366
X1.2799Y-1.2366
X1.2799Y-1.6689
X1.2799Y-1.7689
X1.2799Y-1.8689
X1.2799Y-1.9689
X1.2799Y-2.4012
X1.2799Y-2.5012
X1.2799Y-2.6012
X1.2799Y-2.7012
X1.2799Y-3.1335
X1.2799Y-3.2335
X1.2799Y-3.3335
X1.2799Y-3.4335
X1.4366Y-0.2043
X1.4366Y-0.3043
X1.4366Y-0.4043
X1.4366Y-0.5043
X1.4366Y-0.9366
X1.4366Y-1.0366
X1.4366Y-1.1366
X1.4366Y-1.2366
X1.4366Y-1.6689
X1.4366Y-1.7689
X1.4366Y-1.8689
X1.4366Y-1.9689
X1.4366Y-2.4012
X1.4366Y-2.5012
X1.4366Y-2.6012
X1.4366Y-2.7012
X1.4366Y-3.1335
X1.4366Y-3.2335
X1.4366Y-3.3335
X1.4366Y-3.4335
X1.7366Y-0.2043
X1.7366Y-0.3043
X1.7366Y-0.4043
X1.7366Y-0.5043
X1.7366Y-0.9366
X1.7366Y-1.0366
X1.7366Y-1.1366
X1.7366Y-1.2366
X1.7366Y-1.6689
X1.7366Y-1.7689
X1.7366Y-1.8689
X1.7366Y-1.9689
X1.7366Y-2.4012
X1.7366Y-2.5012
X1.7366Y-2.6012
X1.7366Y-2.7012
X1.7366Y-3.1335
X1.7366Y-3.2335
X1.7366Y-3.3335
X1.7366Y-3.4335
X1.8933Y-0.2043
X1.8933Y-0.3043
X1.8933Y-0.4043
X1.8933Y-0.5043
X1.8933Y-0.9366
X1.8933Y-1.0366
X1.8933Y-1.1366
X1.8933Y-1.2366
X1.8933Y-1.6689
X1.8933Y-1.7689
X1.8933Y-1.8689
X1.8933Y-1.9689
X1.8933Y-2.4012
X1.8933Y-2.5012
X1.8933Y-2.6012
X1.8933Y-2.7012
X1.8933Y-3.1335
X1.8933Y-3.2335
X1.8933Y-3.3335
X1.8933Y-3.4335
X2.1933Y-0.2043
X2.1933Y-0.3043
X2.1933Y-0.4043
X2.1933Y-0.5043
X2.1933Y-0.9366
X2.1933Y-1.0366
X2.1933Y-1.1366
X2.1933Y-1.2366
X2.1933Y-1.6689
X2.1933Y-1.7689
X2.1933Y-1.8689
X2.1933Y-1.9689
X2.1933Y-2.4012
X2.1933Y-2.5012
X2.1933Y-2.6012
X2.1933Y-2.7012
X2.1933Y-3.1335
X2.1933Y-3.2335
X2.1933Y-3.3335
X2.1933Y-3.4335
X2.35Y-0.2043
X2.35Y-0.3043
X2.35Y-0.4043
X2.35Y-0.5043
X2.35Y-0.9366
X2.35Y-1.0366
X2.35Y-1.1366
X2.35Y-1.2366
X2.35Y-1.6689
X2.35Y-1.7689
X2.35Y-1.8689
X2.35Y-1.9689
X2.35Y-2.4012
X2.35Y-2.5012
X2.35Y-2.6012
X2.35Y-2.7012
X2.35Y-3.1335
X2.35Y-3.2335
X2.35Y-3.3335
X2.35Y-3.4335
X2.65Y-0.2043
X2.65Y-0.3043
X2.65Y-0.4043
X2.65Y-0.5043
X2.65Y-0.9366
X2.65Y-1.0366
X2.65Y-1.1366
X2.65Y-1.2366
X2.65Y-1.6689
X2.65Y-1.7689
X2.65Y-1.8689
X2.65Y-1.9689
X2.65Y-2.4012
X2.65Y-2.5012
X2.65Y-2.6012
X2.65Y-2.7012
X2.65Y-3.1335
X2.65Y-3.2335
X2.65Y-3.3335
X2.65Y-3.4335
X2.8067Y-0.2043
X2.8067Y-0.3043
X2.8067Y-0.4043
X2.8067Y-0.5043
X2.8067Y-0.9366
X2.8067Y-1.0366
X2.8067Y-1.1366
X2.8067Y-1.2366
X2.8067Y-1.6689
X2.8067Y-1.7689
X2.8067Y-1.8689
X2.8067Y-1.9689
X2.8067Y-2.4012
X2.8067Y-2.5012
X2.8067Y-2.6012
X2.8067Y-2.7012
X2.8067Y-3.1335
X2.8067Y-3.2335
X2.8067Y-3.3335
X2.8067Y-3.4335
X3.1067Y-0.2043
X3.1067Y-0.3043
X3.1067Y-0.4043
X3.1067Y-0.5043
X3.1067Y-0.9366
X3.1067Y-1.0366
X3.1067Y-1.1366
X3.1067Y-1.2366
X3.1067Y-1.6689
X3.1067Y-1.7689
X3.1067Y-1.8689
X3.1067Y-1.9689
X3.1067Y-2.4012
X3.1067Y-2.5012
X3.1067Y-2.6012
X3.1067Y-2.7012
X3.1067Y-3.1335
X3.1067Y-3.2335
X3.1067Y-3.3335
X3.1067Y-3.4335
X3.2634Y-0.2043
X3.2634Y-0.3043
X3.2634Y-0.4043
X3.2634Y-0.5043
X3.2634Y-0.9366
X3.2634Y-1.0366
X3.2634Y-1.1366
X3.2634Y-1.2366
X3.2634Y-1.6689
X3.2634Y-1.7689
X3.2634Y-1.8689
X3.2634Y-1.9689
X3.2634Y-2.4012
X3.2634Y-2.5012
X3.2634Y-2.6012
X3.2634Y-2.7012
X3.2634Y-3.1335
X3.2634Y-3.2335
X3.2634Y-3.3335
X3.2634Y-3.4335
X3.5634Y-0.2043
X3.5634Y-0.3043
X3.5634Y-0.4043
X3.5634Y-0.5043
X3.5634Y-0.9366
X3.5634Y-1.0366
X3.5634Y-1.1366
X3.5634Y-1.2366
X3.5634Y-1.6689
X3.5634Y-1.7689
X3.5634Y-1.8689
X3.5634Y-1.9689
X3.5634Y-2.4012
X3.5634Y-2.5012
X3.5634Y-2.6012
X3.5634Y-2.7012
X3.5634Y-3.1335
X3.5634Y-3.2335
X3.5634Y-3.3335
X3.5634Y-3.4335
M30
