%TF.GenerationSoftware,KiCad,Pcbnew,8.0.8*%
%TF.CreationDate,2025-03-09T21:38:21+09:00*%
%TF.ProjectId,panelized,70616e65-6c69-47a6-9564-2e6b69636164,rev?*%
%TF.SameCoordinates,Original*%
%TF.FileFunction,Soldermask,Bot*%
%TF.FilePolarity,Negative*%
%FSLAX46Y46*%
G04 Gerber Fmt 4.6, Leading zero omitted, Abs format (unit mm)*
G04 Created by KiCad (PCBNEW 8.0.8) date 2025-03-09 21:38:21*
%MOMM*%
%LPD*%
G01*
G04 APERTURE LIST*
G04 Aperture macros list*
%AMRoundRect*
0 Rectangle with rounded corners*
0 $1 Rounding radius*
0 $2 $3 $4 $5 $6 $7 $8 $9 X,Y pos of 4 corners*
0 Add a 4 corners polygon primitive as box body*
4,1,4,$2,$3,$4,$5,$6,$7,$8,$9,$2,$3,0*
0 Add four circle primitives for the rounded corners*
1,1,$1+$1,$2,$3*
1,1,$1+$1,$4,$5*
1,1,$1+$1,$6,$7*
1,1,$1+$1,$8,$9*
0 Add four rect primitives between the rounded corners*
20,1,$1+$1,$2,$3,$4,$5,0*
20,1,$1+$1,$4,$5,$6,$7,0*
20,1,$1+$1,$6,$7,$8,$9,0*
20,1,$1+$1,$8,$9,$2,$3,0*%
G04 Aperture macros list end*
%ADD10RoundRect,0.100000X0.130000X0.100000X-0.130000X0.100000X-0.130000X-0.100000X0.130000X-0.100000X0*%
%ADD11RoundRect,0.225000X-0.225000X-0.250000X0.225000X-0.250000X0.225000X0.250000X-0.225000X0.250000X0*%
%ADD12RoundRect,0.200000X0.200000X0.275000X-0.200000X0.275000X-0.200000X-0.275000X0.200000X-0.275000X0*%
%ADD13R,1.700000X1.700000*%
%ADD14O,1.700000X1.700000*%
%ADD15RoundRect,0.200000X0.275000X-0.200000X0.275000X0.200000X-0.275000X0.200000X-0.275000X-0.200000X0*%
%ADD16RoundRect,0.225000X0.225000X0.250000X-0.225000X0.250000X-0.225000X-0.250000X0.225000X-0.250000X0*%
G04 APERTURE END LIST*
D10*
%TO.C,JP3*%
X1720000Y-15850000D03*
X1080000Y-15850000D03*
%TD*%
D11*
%TO.C,C1*%
X39525000Y-24300000D03*
X41075000Y-24300000D03*
%TD*%
D10*
%TO.C,JP3*%
X59720000Y-15850000D03*
X59080000Y-15850000D03*
%TD*%
%TO.C,JP3*%
X36520000Y-53050000D03*
X35880000Y-53050000D03*
%TD*%
D12*
%TO.C,R3*%
X6325000Y-11100000D03*
X4675000Y-11100000D03*
%TD*%
D13*
%TO.C,J3*%
X67310000Y-50010000D03*
D14*
X67310000Y-47470000D03*
X67310000Y-44930000D03*
X67310000Y-42390000D03*
%TD*%
D10*
%TO.C,JP3*%
X82920000Y-15850000D03*
X82280000Y-15850000D03*
%TD*%
D12*
%TO.C,R3*%
X52725000Y-29700000D03*
X51075000Y-29700000D03*
%TD*%
D11*
%TO.C,C1*%
X16325000Y-5700000D03*
X17875000Y-5700000D03*
%TD*%
D10*
%TO.C,JP2*%
X4000000Y-72700000D03*
X3360000Y-72700000D03*
%TD*%
D13*
%TO.C,J3*%
X20910000Y-68610000D03*
D14*
X20910000Y-66070000D03*
X20910000Y-63530000D03*
X20910000Y-60990000D03*
%TD*%
D12*
%TO.C,R3*%
X75925000Y-11100000D03*
X74275000Y-11100000D03*
%TD*%
D13*
%TO.C,J3*%
X32510000Y-31410000D03*
D14*
X32510000Y-28870000D03*
X32510000Y-26330000D03*
X32510000Y-23790000D03*
%TD*%
D10*
%TO.C,JP4*%
X13320000Y-91300000D03*
X12680000Y-91300000D03*
%TD*%
%TO.C,JP4*%
X82920000Y-35500000D03*
X82280000Y-35500000D03*
%TD*%
D12*
%TO.C,R1*%
X87525000Y-87300000D03*
X85875000Y-87300000D03*
%TD*%
%TO.C,R1*%
X64325000Y-68700000D03*
X62675000Y-68700000D03*
%TD*%
D10*
%TO.C,JP2*%
X50400000Y-16900000D03*
X49760000Y-16900000D03*
%TD*%
%TO.C,JP1*%
X62000000Y-53050000D03*
X61360000Y-53050000D03*
%TD*%
D12*
%TO.C,R1*%
X64325000Y-50100000D03*
X62675000Y-50100000D03*
%TD*%
D13*
%TO.C,J3*%
X67310000Y-31410000D03*
D14*
X67310000Y-28870000D03*
X67310000Y-26330000D03*
X67310000Y-23790000D03*
%TD*%
D13*
%TO.C,J3*%
X67310000Y-12810000D03*
D14*
X67310000Y-10270000D03*
X67310000Y-7730000D03*
X67310000Y-5190000D03*
%TD*%
D13*
%TO.C,J1*%
X13290000Y-5190000D03*
D14*
X13290000Y-7730000D03*
X13290000Y-10270000D03*
X13290000Y-12810000D03*
%TD*%
D10*
%TO.C,JP1*%
X50400000Y-53050000D03*
X49760000Y-53050000D03*
%TD*%
D12*
%TO.C,R1*%
X17925000Y-12900000D03*
X16275000Y-12900000D03*
%TD*%
%TO.C,R1*%
X17925000Y-87300000D03*
X16275000Y-87300000D03*
%TD*%
D15*
%TO.C,R2*%
X9300000Y-17125000D03*
X9300000Y-15475000D03*
%TD*%
D13*
%TO.C,J1*%
X82890000Y-60990000D03*
D14*
X82890000Y-63530000D03*
X82890000Y-66070000D03*
X82890000Y-68610000D03*
%TD*%
D10*
%TO.C,JP2*%
X73600000Y-35500000D03*
X72960000Y-35500000D03*
%TD*%
D13*
%TO.C,J1*%
X1690000Y-79590000D03*
D14*
X1690000Y-82130000D03*
X1690000Y-84670000D03*
X1690000Y-87210000D03*
%TD*%
D10*
%TO.C,JP4*%
X1720000Y-72700000D03*
X1080000Y-72700000D03*
%TD*%
D11*
%TO.C,C1*%
X16325000Y-24300000D03*
X17875000Y-24300000D03*
%TD*%
D10*
%TO.C,JP1*%
X73600000Y-34450000D03*
X72960000Y-34450000D03*
%TD*%
%TO.C,JP4*%
X36520000Y-91300000D03*
X35880000Y-91300000D03*
%TD*%
D16*
%TO.C,C2*%
X6275000Y-22300000D03*
X4725000Y-22300000D03*
%TD*%
D12*
%TO.C,R3*%
X29525000Y-11100000D03*
X27875000Y-11100000D03*
%TD*%
D15*
%TO.C,R2*%
X78900000Y-91525000D03*
X78900000Y-89875000D03*
%TD*%
D10*
%TO.C,JP2*%
X38800000Y-91300000D03*
X38160000Y-91300000D03*
%TD*%
D13*
%TO.C,J3*%
X44110000Y-68610000D03*
D14*
X44110000Y-66070000D03*
X44110000Y-63530000D03*
X44110000Y-60990000D03*
%TD*%
D13*
%TO.C,J3*%
X78910000Y-68610000D03*
D14*
X78910000Y-66070000D03*
X78910000Y-63530000D03*
X78910000Y-60990000D03*
%TD*%
D15*
%TO.C,R2*%
X78900000Y-54325000D03*
X78900000Y-52675000D03*
%TD*%
D10*
%TO.C,JP4*%
X24920000Y-72700000D03*
X24280000Y-72700000D03*
%TD*%
D15*
%TO.C,R2*%
X55700000Y-91525000D03*
X55700000Y-89875000D03*
%TD*%
D10*
%TO.C,JP3*%
X13320000Y-15850000D03*
X12680000Y-15850000D03*
%TD*%
%TO.C,JP2*%
X15600000Y-91300000D03*
X14960000Y-91300000D03*
%TD*%
%TO.C,JP4*%
X36520000Y-72700000D03*
X35880000Y-72700000D03*
%TD*%
%TO.C,JP3*%
X71320000Y-53050000D03*
X70680000Y-53050000D03*
%TD*%
D13*
%TO.C,J1*%
X82890000Y-42390000D03*
D14*
X82890000Y-44930000D03*
X82890000Y-47470000D03*
X82890000Y-50010000D03*
%TD*%
D15*
%TO.C,R2*%
X78900000Y-72925000D03*
X78900000Y-71275000D03*
%TD*%
D11*
%TO.C,C1*%
X51125000Y-24300000D03*
X52675000Y-24300000D03*
%TD*%
D16*
%TO.C,C2*%
X17875000Y-22300000D03*
X16325000Y-22300000D03*
%TD*%
D10*
%TO.C,JP3*%
X24920000Y-34450000D03*
X24280000Y-34450000D03*
%TD*%
%TO.C,JP3*%
X1720000Y-90250000D03*
X1080000Y-90250000D03*
%TD*%
D15*
%TO.C,R2*%
X44100000Y-72925000D03*
X44100000Y-71275000D03*
%TD*%
D12*
%TO.C,R1*%
X29525000Y-12900000D03*
X27875000Y-12900000D03*
%TD*%
D13*
%TO.C,J1*%
X59690000Y-60990000D03*
D14*
X59690000Y-63530000D03*
X59690000Y-66070000D03*
X59690000Y-68610000D03*
%TD*%
D10*
%TO.C,JP1*%
X62000000Y-34450000D03*
X61360000Y-34450000D03*
%TD*%
%TO.C,JP4*%
X59720000Y-91300000D03*
X59080000Y-91300000D03*
%TD*%
%TO.C,JP4*%
X24920000Y-35500000D03*
X24280000Y-35500000D03*
%TD*%
D11*
%TO.C,C1*%
X85925000Y-5700000D03*
X87475000Y-5700000D03*
%TD*%
D10*
%TO.C,JP3*%
X24920000Y-71650000D03*
X24280000Y-71650000D03*
%TD*%
D12*
%TO.C,R1*%
X17925000Y-68700000D03*
X16275000Y-68700000D03*
%TD*%
D16*
%TO.C,C2*%
X87475000Y-40900000D03*
X85925000Y-40900000D03*
%TD*%
D10*
%TO.C,JP3*%
X24920000Y-15850000D03*
X24280000Y-15850000D03*
%TD*%
D13*
%TO.C,J3*%
X90510000Y-87210000D03*
D14*
X90510000Y-84670000D03*
X90510000Y-82130000D03*
X90510000Y-79590000D03*
%TD*%
D10*
%TO.C,JP1*%
X85200000Y-15850000D03*
X84560000Y-15850000D03*
%TD*%
D11*
%TO.C,C1*%
X4725000Y-5700000D03*
X6275000Y-5700000D03*
%TD*%
D10*
%TO.C,JP1*%
X15600000Y-71650000D03*
X14960000Y-71650000D03*
%TD*%
%TO.C,JP2*%
X4000000Y-35500000D03*
X3360000Y-35500000D03*
%TD*%
%TO.C,JP4*%
X48120000Y-35500000D03*
X47480000Y-35500000D03*
%TD*%
D13*
%TO.C,J1*%
X24890000Y-42390000D03*
D14*
X24890000Y-44930000D03*
X24890000Y-47470000D03*
X24890000Y-50010000D03*
%TD*%
D13*
%TO.C,J1*%
X13290000Y-23790000D03*
D14*
X13290000Y-26330000D03*
X13290000Y-28870000D03*
X13290000Y-31410000D03*
%TD*%
D15*
%TO.C,R2*%
X55700000Y-35725000D03*
X55700000Y-34075000D03*
%TD*%
D13*
%TO.C,J1*%
X1690000Y-5190000D03*
D14*
X1690000Y-7730000D03*
X1690000Y-10270000D03*
X1690000Y-12810000D03*
%TD*%
D12*
%TO.C,R3*%
X87525000Y-11100000D03*
X85875000Y-11100000D03*
%TD*%
%TO.C,R3*%
X41125000Y-66900000D03*
X39475000Y-66900000D03*
%TD*%
D10*
%TO.C,JP3*%
X36520000Y-34450000D03*
X35880000Y-34450000D03*
%TD*%
%TO.C,JP2*%
X62000000Y-54100000D03*
X61360000Y-54100000D03*
%TD*%
D13*
%TO.C,J3*%
X78910000Y-31410000D03*
D14*
X78910000Y-28870000D03*
X78910000Y-26330000D03*
X78910000Y-23790000D03*
%TD*%
D15*
%TO.C,R2*%
X67300000Y-72925000D03*
X67300000Y-71275000D03*
%TD*%
D10*
%TO.C,JP2*%
X62000000Y-72700000D03*
X61360000Y-72700000D03*
%TD*%
D15*
%TO.C,R2*%
X90500000Y-35725000D03*
X90500000Y-34075000D03*
%TD*%
D13*
%TO.C,J1*%
X24890000Y-60990000D03*
D14*
X24890000Y-63530000D03*
X24890000Y-66070000D03*
X24890000Y-68610000D03*
%TD*%
D10*
%TO.C,JP4*%
X71320000Y-91300000D03*
X70680000Y-91300000D03*
%TD*%
%TO.C,JP1*%
X38800000Y-90250000D03*
X38160000Y-90250000D03*
%TD*%
%TO.C,JP2*%
X15600000Y-35500000D03*
X14960000Y-35500000D03*
%TD*%
%TO.C,JP1*%
X62000000Y-90250000D03*
X61360000Y-90250000D03*
%TD*%
D15*
%TO.C,R2*%
X90500000Y-17125000D03*
X90500000Y-15475000D03*
%TD*%
D11*
%TO.C,C1*%
X74325000Y-61500000D03*
X75875000Y-61500000D03*
%TD*%
D12*
%TO.C,R3*%
X64325000Y-85500000D03*
X62675000Y-85500000D03*
%TD*%
%TO.C,R1*%
X6325000Y-87300000D03*
X4675000Y-87300000D03*
%TD*%
D13*
%TO.C,J3*%
X78910000Y-12810000D03*
D14*
X78910000Y-10270000D03*
X78910000Y-7730000D03*
X78910000Y-5190000D03*
%TD*%
D15*
%TO.C,R2*%
X67300000Y-54325000D03*
X67300000Y-52675000D03*
%TD*%
D10*
%TO.C,JP1*%
X50400000Y-71650000D03*
X49760000Y-71650000D03*
%TD*%
D16*
%TO.C,C2*%
X87475000Y-78100000D03*
X85925000Y-78100000D03*
%TD*%
D12*
%TO.C,R1*%
X64325000Y-12900000D03*
X62675000Y-12900000D03*
%TD*%
D10*
%TO.C,JP1*%
X4000000Y-34450000D03*
X3360000Y-34450000D03*
%TD*%
%TO.C,JP4*%
X24920000Y-54100000D03*
X24280000Y-54100000D03*
%TD*%
D15*
%TO.C,R2*%
X78900000Y-35725000D03*
X78900000Y-34075000D03*
%TD*%
D12*
%TO.C,R3*%
X6325000Y-85500000D03*
X4675000Y-85500000D03*
%TD*%
D10*
%TO.C,JP4*%
X24920000Y-16900000D03*
X24280000Y-16900000D03*
%TD*%
%TO.C,JP4*%
X1720000Y-35500000D03*
X1080000Y-35500000D03*
%TD*%
D13*
%TO.C,J1*%
X48090000Y-60990000D03*
D14*
X48090000Y-63530000D03*
X48090000Y-66070000D03*
X48090000Y-68610000D03*
%TD*%
D11*
%TO.C,C1*%
X62725000Y-24300000D03*
X64275000Y-24300000D03*
%TD*%
D10*
%TO.C,JP2*%
X85200000Y-35500000D03*
X84560000Y-35500000D03*
%TD*%
%TO.C,JP1*%
X27200000Y-34450000D03*
X26560000Y-34450000D03*
%TD*%
D12*
%TO.C,R3*%
X75925000Y-85500000D03*
X74275000Y-85500000D03*
%TD*%
D10*
%TO.C,JP3*%
X71320000Y-90250000D03*
X70680000Y-90250000D03*
%TD*%
D15*
%TO.C,R2*%
X67300000Y-35725000D03*
X67300000Y-34075000D03*
%TD*%
D10*
%TO.C,JP4*%
X48120000Y-54100000D03*
X47480000Y-54100000D03*
%TD*%
D11*
%TO.C,C1*%
X27925000Y-5700000D03*
X29475000Y-5700000D03*
%TD*%
D10*
%TO.C,JP2*%
X50400000Y-91300000D03*
X49760000Y-91300000D03*
%TD*%
D12*
%TO.C,R1*%
X75925000Y-12900000D03*
X74275000Y-12900000D03*
%TD*%
D10*
%TO.C,JP1*%
X27200000Y-15850000D03*
X26560000Y-15850000D03*
%TD*%
D13*
%TO.C,J3*%
X78910000Y-87210000D03*
D14*
X78910000Y-84670000D03*
X78910000Y-82130000D03*
X78910000Y-79590000D03*
%TD*%
D12*
%TO.C,R3*%
X87525000Y-66900000D03*
X85875000Y-66900000D03*
%TD*%
D15*
%TO.C,R2*%
X20900000Y-35725000D03*
X20900000Y-34075000D03*
%TD*%
D12*
%TO.C,R1*%
X75925000Y-68700000D03*
X74275000Y-68700000D03*
%TD*%
D13*
%TO.C,J1*%
X36490000Y-60990000D03*
D14*
X36490000Y-63530000D03*
X36490000Y-66070000D03*
X36490000Y-68610000D03*
%TD*%
D12*
%TO.C,R1*%
X29525000Y-87300000D03*
X27875000Y-87300000D03*
%TD*%
D13*
%TO.C,J1*%
X48090000Y-23790000D03*
D14*
X48090000Y-26330000D03*
X48090000Y-28870000D03*
X48090000Y-31410000D03*
%TD*%
D10*
%TO.C,JP3*%
X59720000Y-53050000D03*
X59080000Y-53050000D03*
%TD*%
%TO.C,JP2*%
X27200000Y-54100000D03*
X26560000Y-54100000D03*
%TD*%
%TO.C,JP4*%
X82920000Y-72700000D03*
X82280000Y-72700000D03*
%TD*%
D13*
%TO.C,J1*%
X36490000Y-5190000D03*
D14*
X36490000Y-7730000D03*
X36490000Y-10270000D03*
X36490000Y-12810000D03*
%TD*%
D10*
%TO.C,JP3*%
X82920000Y-53050000D03*
X82280000Y-53050000D03*
%TD*%
%TO.C,JP1*%
X4000000Y-71650000D03*
X3360000Y-71650000D03*
%TD*%
%TO.C,JP2*%
X4000000Y-54100000D03*
X3360000Y-54100000D03*
%TD*%
D12*
%TO.C,R3*%
X52725000Y-66900000D03*
X51075000Y-66900000D03*
%TD*%
D11*
%TO.C,C1*%
X85925000Y-42900000D03*
X87475000Y-42900000D03*
%TD*%
%TO.C,C1*%
X4725000Y-24300000D03*
X6275000Y-24300000D03*
%TD*%
D12*
%TO.C,R1*%
X41125000Y-31500000D03*
X39475000Y-31500000D03*
%TD*%
D11*
%TO.C,C1*%
X39525000Y-5700000D03*
X41075000Y-5700000D03*
%TD*%
D13*
%TO.C,J1*%
X48090000Y-42390000D03*
D14*
X48090000Y-44930000D03*
X48090000Y-47470000D03*
X48090000Y-50010000D03*
%TD*%
D10*
%TO.C,JP4*%
X59720000Y-72700000D03*
X59080000Y-72700000D03*
%TD*%
D11*
%TO.C,C1*%
X51125000Y-80100000D03*
X52675000Y-80100000D03*
%TD*%
D10*
%TO.C,JP2*%
X62000000Y-35500000D03*
X61360000Y-35500000D03*
%TD*%
D13*
%TO.C,J3*%
X90510000Y-50010000D03*
D14*
X90510000Y-47470000D03*
X90510000Y-44930000D03*
X90510000Y-42390000D03*
%TD*%
D10*
%TO.C,JP4*%
X13320000Y-35500000D03*
X12680000Y-35500000D03*
%TD*%
D15*
%TO.C,R2*%
X32500000Y-35725000D03*
X32500000Y-34075000D03*
%TD*%
D10*
%TO.C,JP3*%
X48120000Y-53050000D03*
X47480000Y-53050000D03*
%TD*%
D13*
%TO.C,J3*%
X20910000Y-50010000D03*
D14*
X20910000Y-47470000D03*
X20910000Y-44930000D03*
X20910000Y-42390000D03*
%TD*%
D13*
%TO.C,J3*%
X90510000Y-12810000D03*
D14*
X90510000Y-10270000D03*
X90510000Y-7730000D03*
X90510000Y-5190000D03*
%TD*%
D11*
%TO.C,C1*%
X51125000Y-61500000D03*
X52675000Y-61500000D03*
%TD*%
D12*
%TO.C,R1*%
X6325000Y-12900000D03*
X4675000Y-12900000D03*
%TD*%
D10*
%TO.C,JP2*%
X38800000Y-35500000D03*
X38160000Y-35500000D03*
%TD*%
%TO.C,JP1*%
X50400000Y-34450000D03*
X49760000Y-34450000D03*
%TD*%
%TO.C,JP4*%
X82920000Y-54100000D03*
X82280000Y-54100000D03*
%TD*%
D12*
%TO.C,R3*%
X17925000Y-85500000D03*
X16275000Y-85500000D03*
%TD*%
D10*
%TO.C,JP3*%
X1720000Y-53050000D03*
X1080000Y-53050000D03*
%TD*%
%TO.C,JP1*%
X27200000Y-71650000D03*
X26560000Y-71650000D03*
%TD*%
D13*
%TO.C,J3*%
X44110000Y-12810000D03*
D14*
X44110000Y-10270000D03*
X44110000Y-7730000D03*
X44110000Y-5190000D03*
%TD*%
D10*
%TO.C,JP3*%
X59720000Y-34450000D03*
X59080000Y-34450000D03*
%TD*%
D16*
%TO.C,C2*%
X75875000Y-40900000D03*
X74325000Y-40900000D03*
%TD*%
D11*
%TO.C,C1*%
X62725000Y-5700000D03*
X64275000Y-5700000D03*
%TD*%
D12*
%TO.C,R3*%
X75925000Y-48300000D03*
X74275000Y-48300000D03*
%TD*%
%TO.C,R3*%
X17925000Y-11100000D03*
X16275000Y-11100000D03*
%TD*%
D10*
%TO.C,JP3*%
X82920000Y-90250000D03*
X82280000Y-90250000D03*
%TD*%
D16*
%TO.C,C2*%
X29475000Y-59500000D03*
X27925000Y-59500000D03*
%TD*%
D13*
%TO.C,J1*%
X71290000Y-5190000D03*
D14*
X71290000Y-7730000D03*
X71290000Y-10270000D03*
X71290000Y-12810000D03*
%TD*%
D15*
%TO.C,R2*%
X9300000Y-54325000D03*
X9300000Y-52675000D03*
%TD*%
D12*
%TO.C,R1*%
X75925000Y-87300000D03*
X74275000Y-87300000D03*
%TD*%
D10*
%TO.C,JP2*%
X73600000Y-72700000D03*
X72960000Y-72700000D03*
%TD*%
%TO.C,JP4*%
X13320000Y-72700000D03*
X12680000Y-72700000D03*
%TD*%
%TO.C,JP2*%
X15600000Y-54100000D03*
X14960000Y-54100000D03*
%TD*%
D16*
%TO.C,C2*%
X64275000Y-40900000D03*
X62725000Y-40900000D03*
%TD*%
D10*
%TO.C,JP4*%
X1720000Y-54100000D03*
X1080000Y-54100000D03*
%TD*%
%TO.C,JP2*%
X15600000Y-72700000D03*
X14960000Y-72700000D03*
%TD*%
D15*
%TO.C,R2*%
X44100000Y-17125000D03*
X44100000Y-15475000D03*
%TD*%
D10*
%TO.C,JP4*%
X71320000Y-16900000D03*
X70680000Y-16900000D03*
%TD*%
D13*
%TO.C,J1*%
X13290000Y-79590000D03*
D14*
X13290000Y-82130000D03*
X13290000Y-84670000D03*
X13290000Y-87210000D03*
%TD*%
D10*
%TO.C,JP1*%
X15600000Y-90250000D03*
X14960000Y-90250000D03*
%TD*%
D12*
%TO.C,R1*%
X87525000Y-68700000D03*
X85875000Y-68700000D03*
%TD*%
D11*
%TO.C,C1*%
X85925000Y-61500000D03*
X87475000Y-61500000D03*
%TD*%
D16*
%TO.C,C2*%
X17875000Y-3700000D03*
X16325000Y-3700000D03*
%TD*%
D15*
%TO.C,R2*%
X32500000Y-72925000D03*
X32500000Y-71275000D03*
%TD*%
D13*
%TO.C,J3*%
X9310000Y-87210000D03*
D14*
X9310000Y-84670000D03*
X9310000Y-82130000D03*
X9310000Y-79590000D03*
%TD*%
D10*
%TO.C,JP1*%
X85200000Y-90250000D03*
X84560000Y-90250000D03*
%TD*%
%TO.C,JP4*%
X82920000Y-16900000D03*
X82280000Y-16900000D03*
%TD*%
%TO.C,JP4*%
X13320000Y-54100000D03*
X12680000Y-54100000D03*
%TD*%
%TO.C,JP2*%
X85200000Y-16900000D03*
X84560000Y-16900000D03*
%TD*%
D13*
%TO.C,J3*%
X55710000Y-87210000D03*
D14*
X55710000Y-84670000D03*
X55710000Y-82130000D03*
X55710000Y-79590000D03*
%TD*%
D12*
%TO.C,R3*%
X75925000Y-29700000D03*
X74275000Y-29700000D03*
%TD*%
D10*
%TO.C,JP4*%
X71320000Y-72700000D03*
X70680000Y-72700000D03*
%TD*%
D13*
%TO.C,J1*%
X13290000Y-42390000D03*
D14*
X13290000Y-44930000D03*
X13290000Y-47470000D03*
X13290000Y-50010000D03*
%TD*%
D12*
%TO.C,R3*%
X52725000Y-48300000D03*
X51075000Y-48300000D03*
%TD*%
D13*
%TO.C,J3*%
X44110000Y-31410000D03*
D14*
X44110000Y-28870000D03*
X44110000Y-26330000D03*
X44110000Y-23790000D03*
%TD*%
D15*
%TO.C,R2*%
X20900000Y-54325000D03*
X20900000Y-52675000D03*
%TD*%
D12*
%TO.C,R1*%
X41125000Y-50100000D03*
X39475000Y-50100000D03*
%TD*%
%TO.C,R3*%
X41125000Y-85500000D03*
X39475000Y-85500000D03*
%TD*%
D13*
%TO.C,J1*%
X24890000Y-79590000D03*
D14*
X24890000Y-82130000D03*
X24890000Y-84670000D03*
X24890000Y-87210000D03*
%TD*%
D11*
%TO.C,C1*%
X27925000Y-80100000D03*
X29475000Y-80100000D03*
%TD*%
D10*
%TO.C,JP3*%
X36520000Y-71650000D03*
X35880000Y-71650000D03*
%TD*%
D12*
%TO.C,R3*%
X17925000Y-48300000D03*
X16275000Y-48300000D03*
%TD*%
D16*
%TO.C,C2*%
X6275000Y-78100000D03*
X4725000Y-78100000D03*
%TD*%
%TO.C,C2*%
X87475000Y-59500000D03*
X85925000Y-59500000D03*
%TD*%
%TO.C,C2*%
X6275000Y-3700000D03*
X4725000Y-3700000D03*
%TD*%
D10*
%TO.C,JP2*%
X85200000Y-54100000D03*
X84560000Y-54100000D03*
%TD*%
D11*
%TO.C,C1*%
X4725000Y-80100000D03*
X6275000Y-80100000D03*
%TD*%
%TO.C,C1*%
X85925000Y-80100000D03*
X87475000Y-80100000D03*
%TD*%
D15*
%TO.C,R2*%
X55700000Y-54325000D03*
X55700000Y-52675000D03*
%TD*%
D10*
%TO.C,JP4*%
X71320000Y-54100000D03*
X70680000Y-54100000D03*
%TD*%
D13*
%TO.C,J3*%
X32510000Y-68610000D03*
D14*
X32510000Y-66070000D03*
X32510000Y-63530000D03*
X32510000Y-60990000D03*
%TD*%
D15*
%TO.C,R2*%
X32500000Y-17125000D03*
X32500000Y-15475000D03*
%TD*%
D10*
%TO.C,JP3*%
X48120000Y-15850000D03*
X47480000Y-15850000D03*
%TD*%
D12*
%TO.C,R1*%
X52725000Y-12900000D03*
X51075000Y-12900000D03*
%TD*%
D15*
%TO.C,R2*%
X32500000Y-91525000D03*
X32500000Y-89875000D03*
%TD*%
D12*
%TO.C,R3*%
X87525000Y-85500000D03*
X85875000Y-85500000D03*
%TD*%
D16*
%TO.C,C2*%
X64275000Y-59500000D03*
X62725000Y-59500000D03*
%TD*%
D13*
%TO.C,J1*%
X48090000Y-5190000D03*
D14*
X48090000Y-7730000D03*
X48090000Y-10270000D03*
X48090000Y-12810000D03*
%TD*%
D12*
%TO.C,R1*%
X75925000Y-50100000D03*
X74275000Y-50100000D03*
%TD*%
D10*
%TO.C,JP3*%
X59720000Y-71650000D03*
X59080000Y-71650000D03*
%TD*%
D13*
%TO.C,J3*%
X9310000Y-50010000D03*
D14*
X9310000Y-47470000D03*
X9310000Y-44930000D03*
X9310000Y-42390000D03*
%TD*%
D10*
%TO.C,JP3*%
X13320000Y-53050000D03*
X12680000Y-53050000D03*
%TD*%
D13*
%TO.C,J1*%
X36490000Y-42390000D03*
D14*
X36490000Y-44930000D03*
X36490000Y-47470000D03*
X36490000Y-50010000D03*
%TD*%
D10*
%TO.C,JP3*%
X82920000Y-34450000D03*
X82280000Y-34450000D03*
%TD*%
D12*
%TO.C,R3*%
X29525000Y-85500000D03*
X27875000Y-85500000D03*
%TD*%
D13*
%TO.C,J3*%
X67310000Y-68610000D03*
D14*
X67310000Y-66070000D03*
X67310000Y-63530000D03*
X67310000Y-60990000D03*
%TD*%
D10*
%TO.C,JP1*%
X4000000Y-53050000D03*
X3360000Y-53050000D03*
%TD*%
%TO.C,JP1*%
X38800000Y-71650000D03*
X38160000Y-71650000D03*
%TD*%
D12*
%TO.C,R3*%
X6325000Y-29700000D03*
X4675000Y-29700000D03*
%TD*%
%TO.C,R3*%
X87525000Y-48300000D03*
X85875000Y-48300000D03*
%TD*%
D10*
%TO.C,JP1*%
X4000000Y-90250000D03*
X3360000Y-90250000D03*
%TD*%
D12*
%TO.C,R1*%
X6325000Y-50100000D03*
X4675000Y-50100000D03*
%TD*%
D11*
%TO.C,C1*%
X27925000Y-42900000D03*
X29475000Y-42900000D03*
%TD*%
D16*
%TO.C,C2*%
X29475000Y-3700000D03*
X27925000Y-3700000D03*
%TD*%
D10*
%TO.C,JP1*%
X38800000Y-34450000D03*
X38160000Y-34450000D03*
%TD*%
D12*
%TO.C,R1*%
X87525000Y-31500000D03*
X85875000Y-31500000D03*
%TD*%
D10*
%TO.C,JP1*%
X85200000Y-71650000D03*
X84560000Y-71650000D03*
%TD*%
%TO.C,JP1*%
X73600000Y-15850000D03*
X72960000Y-15850000D03*
%TD*%
D13*
%TO.C,J1*%
X24890000Y-5190000D03*
D14*
X24890000Y-7730000D03*
X24890000Y-10270000D03*
X24890000Y-12810000D03*
%TD*%
D12*
%TO.C,R3*%
X64325000Y-29700000D03*
X62675000Y-29700000D03*
%TD*%
%TO.C,R3*%
X75925000Y-66900000D03*
X74275000Y-66900000D03*
%TD*%
D10*
%TO.C,JP4*%
X1720000Y-91300000D03*
X1080000Y-91300000D03*
%TD*%
%TO.C,JP3*%
X48120000Y-34450000D03*
X47480000Y-34450000D03*
%TD*%
%TO.C,JP1*%
X15600000Y-53050000D03*
X14960000Y-53050000D03*
%TD*%
D11*
%TO.C,C1*%
X62725000Y-80100000D03*
X64275000Y-80100000D03*
%TD*%
D10*
%TO.C,JP2*%
X38800000Y-54100000D03*
X38160000Y-54100000D03*
%TD*%
D13*
%TO.C,J1*%
X36490000Y-79590000D03*
D14*
X36490000Y-82130000D03*
X36490000Y-84670000D03*
X36490000Y-87210000D03*
%TD*%
D10*
%TO.C,JP3*%
X1720000Y-34450000D03*
X1080000Y-34450000D03*
%TD*%
%TO.C,JP1*%
X15600000Y-34450000D03*
X14960000Y-34450000D03*
%TD*%
%TO.C,JP1*%
X73600000Y-53050000D03*
X72960000Y-53050000D03*
%TD*%
%TO.C,JP3*%
X48120000Y-90250000D03*
X47480000Y-90250000D03*
%TD*%
D12*
%TO.C,R1*%
X41125000Y-68700000D03*
X39475000Y-68700000D03*
%TD*%
D10*
%TO.C,JP4*%
X48120000Y-91300000D03*
X47480000Y-91300000D03*
%TD*%
D15*
%TO.C,R2*%
X67300000Y-91525000D03*
X67300000Y-89875000D03*
%TD*%
D11*
%TO.C,C1*%
X27925000Y-61500000D03*
X29475000Y-61500000D03*
%TD*%
D13*
%TO.C,J1*%
X71290000Y-60990000D03*
D14*
X71290000Y-63530000D03*
X71290000Y-66070000D03*
X71290000Y-68610000D03*
%TD*%
D11*
%TO.C,C1*%
X39525000Y-80100000D03*
X41075000Y-80100000D03*
%TD*%
D12*
%TO.C,R3*%
X17925000Y-66900000D03*
X16275000Y-66900000D03*
%TD*%
D13*
%TO.C,J1*%
X59690000Y-23790000D03*
D14*
X59690000Y-26330000D03*
X59690000Y-28870000D03*
X59690000Y-31410000D03*
%TD*%
D10*
%TO.C,JP2*%
X50400000Y-54100000D03*
X49760000Y-54100000D03*
%TD*%
%TO.C,JP2*%
X85200000Y-91300000D03*
X84560000Y-91300000D03*
%TD*%
D15*
%TO.C,R2*%
X55700000Y-72925000D03*
X55700000Y-71275000D03*
%TD*%
D10*
%TO.C,JP4*%
X24920000Y-91300000D03*
X24280000Y-91300000D03*
%TD*%
D16*
%TO.C,C2*%
X75875000Y-3700000D03*
X74325000Y-3700000D03*
%TD*%
D15*
%TO.C,R2*%
X44100000Y-91525000D03*
X44100000Y-89875000D03*
%TD*%
D13*
%TO.C,J1*%
X1690000Y-23790000D03*
D14*
X1690000Y-26330000D03*
X1690000Y-28870000D03*
X1690000Y-31410000D03*
%TD*%
D16*
%TO.C,C2*%
X87475000Y-3700000D03*
X85925000Y-3700000D03*
%TD*%
%TO.C,C2*%
X17875000Y-40900000D03*
X16325000Y-40900000D03*
%TD*%
D10*
%TO.C,JP2*%
X73600000Y-91300000D03*
X72960000Y-91300000D03*
%TD*%
D15*
%TO.C,R2*%
X20900000Y-91525000D03*
X20900000Y-89875000D03*
%TD*%
D10*
%TO.C,JP3*%
X24920000Y-90250000D03*
X24280000Y-90250000D03*
%TD*%
D11*
%TO.C,C1*%
X85925000Y-24300000D03*
X87475000Y-24300000D03*
%TD*%
D10*
%TO.C,JP2*%
X15600000Y-16900000D03*
X14960000Y-16900000D03*
%TD*%
D16*
%TO.C,C2*%
X52675000Y-40900000D03*
X51125000Y-40900000D03*
%TD*%
D12*
%TO.C,R3*%
X41125000Y-29700000D03*
X39475000Y-29700000D03*
%TD*%
D10*
%TO.C,JP2*%
X27200000Y-91300000D03*
X26560000Y-91300000D03*
%TD*%
D15*
%TO.C,R2*%
X90500000Y-54325000D03*
X90500000Y-52675000D03*
%TD*%
D10*
%TO.C,JP1*%
X50400000Y-15850000D03*
X49760000Y-15850000D03*
%TD*%
D13*
%TO.C,J3*%
X55710000Y-31410000D03*
D14*
X55710000Y-28870000D03*
X55710000Y-26330000D03*
X55710000Y-23790000D03*
%TD*%
D12*
%TO.C,R1*%
X41125000Y-12900000D03*
X39475000Y-12900000D03*
%TD*%
D13*
%TO.C,J1*%
X59690000Y-5190000D03*
D14*
X59690000Y-7730000D03*
X59690000Y-10270000D03*
X59690000Y-12810000D03*
%TD*%
D13*
%TO.C,J3*%
X44110000Y-50010000D03*
D14*
X44110000Y-47470000D03*
X44110000Y-44930000D03*
X44110000Y-42390000D03*
%TD*%
D10*
%TO.C,JP4*%
X59720000Y-54100000D03*
X59080000Y-54100000D03*
%TD*%
D15*
%TO.C,R2*%
X9300000Y-72925000D03*
X9300000Y-71275000D03*
%TD*%
D10*
%TO.C,JP4*%
X48120000Y-72700000D03*
X47480000Y-72700000D03*
%TD*%
D12*
%TO.C,R1*%
X87525000Y-50100000D03*
X85875000Y-50100000D03*
%TD*%
D13*
%TO.C,J1*%
X71290000Y-23790000D03*
D14*
X71290000Y-26330000D03*
X71290000Y-28870000D03*
X71290000Y-31410000D03*
%TD*%
D13*
%TO.C,J3*%
X20910000Y-31410000D03*
D14*
X20910000Y-28870000D03*
X20910000Y-26330000D03*
X20910000Y-23790000D03*
%TD*%
D15*
%TO.C,R2*%
X20900000Y-17125000D03*
X20900000Y-15475000D03*
%TD*%
D13*
%TO.C,J3*%
X9310000Y-68610000D03*
D14*
X9310000Y-66070000D03*
X9310000Y-63530000D03*
X9310000Y-60990000D03*
%TD*%
D10*
%TO.C,JP2*%
X4000000Y-16900000D03*
X3360000Y-16900000D03*
%TD*%
D12*
%TO.C,R3*%
X17925000Y-29700000D03*
X16275000Y-29700000D03*
%TD*%
%TO.C,R3*%
X29525000Y-48300000D03*
X27875000Y-48300000D03*
%TD*%
%TO.C,R1*%
X29525000Y-68700000D03*
X27875000Y-68700000D03*
%TD*%
D13*
%TO.C,J1*%
X36490000Y-23790000D03*
D14*
X36490000Y-26330000D03*
X36490000Y-28870000D03*
X36490000Y-31410000D03*
%TD*%
D12*
%TO.C,R1*%
X29525000Y-31500000D03*
X27875000Y-31500000D03*
%TD*%
D13*
%TO.C,J1*%
X24890000Y-23790000D03*
D14*
X24890000Y-26330000D03*
X24890000Y-28870000D03*
X24890000Y-31410000D03*
%TD*%
D10*
%TO.C,JP1*%
X38800000Y-15850000D03*
X38160000Y-15850000D03*
%TD*%
D12*
%TO.C,R1*%
X64325000Y-31500000D03*
X62675000Y-31500000D03*
%TD*%
D13*
%TO.C,J3*%
X55710000Y-12810000D03*
D14*
X55710000Y-10270000D03*
X55710000Y-7730000D03*
X55710000Y-5190000D03*
%TD*%
D12*
%TO.C,R3*%
X6325000Y-48300000D03*
X4675000Y-48300000D03*
%TD*%
D16*
%TO.C,C2*%
X52675000Y-22300000D03*
X51125000Y-22300000D03*
%TD*%
%TO.C,C2*%
X41075000Y-78100000D03*
X39525000Y-78100000D03*
%TD*%
D10*
%TO.C,JP2*%
X62000000Y-91300000D03*
X61360000Y-91300000D03*
%TD*%
%TO.C,JP1*%
X62000000Y-71650000D03*
X61360000Y-71650000D03*
%TD*%
D13*
%TO.C,J3*%
X78910000Y-50010000D03*
D14*
X78910000Y-47470000D03*
X78910000Y-44930000D03*
X78910000Y-42390000D03*
%TD*%
D16*
%TO.C,C2*%
X41075000Y-22300000D03*
X39525000Y-22300000D03*
%TD*%
D12*
%TO.C,R1*%
X52725000Y-68700000D03*
X51075000Y-68700000D03*
%TD*%
D16*
%TO.C,C2*%
X75875000Y-78100000D03*
X74325000Y-78100000D03*
%TD*%
D15*
%TO.C,R2*%
X9300000Y-91525000D03*
X9300000Y-89875000D03*
%TD*%
D12*
%TO.C,R3*%
X87525000Y-29700000D03*
X85875000Y-29700000D03*
%TD*%
D10*
%TO.C,JP3*%
X13320000Y-34450000D03*
X12680000Y-34450000D03*
%TD*%
D11*
%TO.C,C1*%
X51125000Y-5700000D03*
X52675000Y-5700000D03*
%TD*%
D15*
%TO.C,R2*%
X90500000Y-72925000D03*
X90500000Y-71275000D03*
%TD*%
D10*
%TO.C,JP4*%
X36520000Y-16900000D03*
X35880000Y-16900000D03*
%TD*%
D11*
%TO.C,C1*%
X39525000Y-42900000D03*
X41075000Y-42900000D03*
%TD*%
D13*
%TO.C,J3*%
X32510000Y-87210000D03*
D14*
X32510000Y-84670000D03*
X32510000Y-82130000D03*
X32510000Y-79590000D03*
%TD*%
D10*
%TO.C,JP1*%
X27200000Y-90250000D03*
X26560000Y-90250000D03*
%TD*%
%TO.C,JP1*%
X85200000Y-34450000D03*
X84560000Y-34450000D03*
%TD*%
D11*
%TO.C,C1*%
X16325000Y-42900000D03*
X17875000Y-42900000D03*
%TD*%
D10*
%TO.C,JP3*%
X13320000Y-71650000D03*
X12680000Y-71650000D03*
%TD*%
D12*
%TO.C,R1*%
X52725000Y-87300000D03*
X51075000Y-87300000D03*
%TD*%
D10*
%TO.C,JP1*%
X85200000Y-53050000D03*
X84560000Y-53050000D03*
%TD*%
D15*
%TO.C,R2*%
X78900000Y-17125000D03*
X78900000Y-15475000D03*
%TD*%
D10*
%TO.C,JP3*%
X59720000Y-90250000D03*
X59080000Y-90250000D03*
%TD*%
D13*
%TO.C,J1*%
X48090000Y-79590000D03*
D14*
X48090000Y-82130000D03*
X48090000Y-84670000D03*
X48090000Y-87210000D03*
%TD*%
D16*
%TO.C,C2*%
X64275000Y-3700000D03*
X62725000Y-3700000D03*
%TD*%
%TO.C,C2*%
X29475000Y-22300000D03*
X27925000Y-22300000D03*
%TD*%
%TO.C,C2*%
X6275000Y-40900000D03*
X4725000Y-40900000D03*
%TD*%
D12*
%TO.C,R3*%
X64325000Y-11100000D03*
X62675000Y-11100000D03*
%TD*%
D11*
%TO.C,C1*%
X16325000Y-61500000D03*
X17875000Y-61500000D03*
%TD*%
D13*
%TO.C,J3*%
X90510000Y-68610000D03*
D14*
X90510000Y-66070000D03*
X90510000Y-63530000D03*
X90510000Y-60990000D03*
%TD*%
D10*
%TO.C,JP1*%
X4000000Y-15850000D03*
X3360000Y-15850000D03*
%TD*%
%TO.C,JP3*%
X36520000Y-15850000D03*
X35880000Y-15850000D03*
%TD*%
D12*
%TO.C,R1*%
X52725000Y-50100000D03*
X51075000Y-50100000D03*
%TD*%
D10*
%TO.C,JP1*%
X62000000Y-15850000D03*
X61360000Y-15850000D03*
%TD*%
D13*
%TO.C,J1*%
X59690000Y-42390000D03*
D14*
X59690000Y-44930000D03*
X59690000Y-47470000D03*
X59690000Y-50010000D03*
%TD*%
D15*
%TO.C,R2*%
X44100000Y-35725000D03*
X44100000Y-34075000D03*
%TD*%
D16*
%TO.C,C2*%
X52675000Y-3700000D03*
X51125000Y-3700000D03*
%TD*%
D10*
%TO.C,JP3*%
X13320000Y-90250000D03*
X12680000Y-90250000D03*
%TD*%
D12*
%TO.C,R3*%
X29525000Y-66900000D03*
X27875000Y-66900000D03*
%TD*%
D10*
%TO.C,JP3*%
X71320000Y-71650000D03*
X70680000Y-71650000D03*
%TD*%
%TO.C,JP2*%
X27200000Y-16900000D03*
X26560000Y-16900000D03*
%TD*%
%TO.C,JP3*%
X71320000Y-34450000D03*
X70680000Y-34450000D03*
%TD*%
D13*
%TO.C,J3*%
X32510000Y-12810000D03*
D14*
X32510000Y-10270000D03*
X32510000Y-7730000D03*
X32510000Y-5190000D03*
%TD*%
D15*
%TO.C,R2*%
X9300000Y-35725000D03*
X9300000Y-34075000D03*
%TD*%
D10*
%TO.C,JP2*%
X27200000Y-72700000D03*
X26560000Y-72700000D03*
%TD*%
D16*
%TO.C,C2*%
X52675000Y-59500000D03*
X51125000Y-59500000D03*
%TD*%
D10*
%TO.C,JP3*%
X48120000Y-71650000D03*
X47480000Y-71650000D03*
%TD*%
D16*
%TO.C,C2*%
X64275000Y-78100000D03*
X62725000Y-78100000D03*
%TD*%
D13*
%TO.C,J3*%
X44110000Y-87210000D03*
D14*
X44110000Y-84670000D03*
X44110000Y-82130000D03*
X44110000Y-79590000D03*
%TD*%
D10*
%TO.C,JP1*%
X73600000Y-71650000D03*
X72960000Y-71650000D03*
%TD*%
D12*
%TO.C,R1*%
X75925000Y-31500000D03*
X74275000Y-31500000D03*
%TD*%
%TO.C,R1*%
X17925000Y-50100000D03*
X16275000Y-50100000D03*
%TD*%
%TO.C,R3*%
X64325000Y-48300000D03*
X62675000Y-48300000D03*
%TD*%
D10*
%TO.C,JP4*%
X36520000Y-35500000D03*
X35880000Y-35500000D03*
%TD*%
D16*
%TO.C,C2*%
X29475000Y-40900000D03*
X27925000Y-40900000D03*
%TD*%
D10*
%TO.C,JP4*%
X48120000Y-16900000D03*
X47480000Y-16900000D03*
%TD*%
D15*
%TO.C,R2*%
X90500000Y-91525000D03*
X90500000Y-89875000D03*
%TD*%
D16*
%TO.C,C2*%
X17875000Y-59500000D03*
X16325000Y-59500000D03*
%TD*%
D12*
%TO.C,R3*%
X6325000Y-66900000D03*
X4675000Y-66900000D03*
%TD*%
D10*
%TO.C,JP2*%
X38800000Y-72700000D03*
X38160000Y-72700000D03*
%TD*%
D15*
%TO.C,R2*%
X20900000Y-72925000D03*
X20900000Y-71275000D03*
%TD*%
D12*
%TO.C,R1*%
X29525000Y-50100000D03*
X27875000Y-50100000D03*
%TD*%
D13*
%TO.C,J3*%
X32510000Y-50010000D03*
D14*
X32510000Y-47470000D03*
X32510000Y-44930000D03*
X32510000Y-42390000D03*
%TD*%
D15*
%TO.C,R2*%
X44100000Y-54325000D03*
X44100000Y-52675000D03*
%TD*%
D10*
%TO.C,JP4*%
X1720000Y-16900000D03*
X1080000Y-16900000D03*
%TD*%
%TO.C,JP2*%
X50400000Y-35500000D03*
X49760000Y-35500000D03*
%TD*%
D12*
%TO.C,R3*%
X29525000Y-29700000D03*
X27875000Y-29700000D03*
%TD*%
D13*
%TO.C,J3*%
X20910000Y-12810000D03*
D14*
X20910000Y-10270000D03*
X20910000Y-7730000D03*
X20910000Y-5190000D03*
%TD*%
D16*
%TO.C,C2*%
X75875000Y-22300000D03*
X74325000Y-22300000D03*
%TD*%
D11*
%TO.C,C1*%
X51125000Y-42900000D03*
X52675000Y-42900000D03*
%TD*%
D10*
%TO.C,JP2*%
X50400000Y-72700000D03*
X49760000Y-72700000D03*
%TD*%
D13*
%TO.C,J1*%
X71290000Y-42390000D03*
D14*
X71290000Y-44930000D03*
X71290000Y-47470000D03*
X71290000Y-50010000D03*
%TD*%
D13*
%TO.C,J1*%
X1690000Y-60990000D03*
D14*
X1690000Y-63530000D03*
X1690000Y-66070000D03*
X1690000Y-68610000D03*
%TD*%
D10*
%TO.C,JP2*%
X27200000Y-35500000D03*
X26560000Y-35500000D03*
%TD*%
D16*
%TO.C,C2*%
X64275000Y-22300000D03*
X62725000Y-22300000D03*
%TD*%
D10*
%TO.C,JP1*%
X38800000Y-53050000D03*
X38160000Y-53050000D03*
%TD*%
%TO.C,JP3*%
X36520000Y-90250000D03*
X35880000Y-90250000D03*
%TD*%
D11*
%TO.C,C1*%
X62725000Y-42900000D03*
X64275000Y-42900000D03*
%TD*%
D12*
%TO.C,R1*%
X6325000Y-31500000D03*
X4675000Y-31500000D03*
%TD*%
D10*
%TO.C,JP4*%
X13320000Y-16900000D03*
X12680000Y-16900000D03*
%TD*%
%TO.C,JP2*%
X38800000Y-16900000D03*
X38160000Y-16900000D03*
%TD*%
%TO.C,JP3*%
X82920000Y-71650000D03*
X82280000Y-71650000D03*
%TD*%
D12*
%TO.C,R3*%
X41125000Y-11100000D03*
X39475000Y-11100000D03*
%TD*%
D11*
%TO.C,C1*%
X74325000Y-5700000D03*
X75875000Y-5700000D03*
%TD*%
D10*
%TO.C,JP1*%
X50400000Y-90250000D03*
X49760000Y-90250000D03*
%TD*%
D12*
%TO.C,R1*%
X17925000Y-31500000D03*
X16275000Y-31500000D03*
%TD*%
%TO.C,R1*%
X6325000Y-68700000D03*
X4675000Y-68700000D03*
%TD*%
D13*
%TO.C,J3*%
X55710000Y-50010000D03*
D14*
X55710000Y-47470000D03*
X55710000Y-44930000D03*
X55710000Y-42390000D03*
%TD*%
D12*
%TO.C,R1*%
X41125000Y-87300000D03*
X39475000Y-87300000D03*
%TD*%
D11*
%TO.C,C1*%
X27925000Y-24300000D03*
X29475000Y-24300000D03*
%TD*%
D12*
%TO.C,R3*%
X52725000Y-11100000D03*
X51075000Y-11100000D03*
%TD*%
D13*
%TO.C,J3*%
X9310000Y-12810000D03*
D14*
X9310000Y-10270000D03*
X9310000Y-7730000D03*
X9310000Y-5190000D03*
%TD*%
D11*
%TO.C,C1*%
X62725000Y-61500000D03*
X64275000Y-61500000D03*
%TD*%
D10*
%TO.C,JP4*%
X59720000Y-35500000D03*
X59080000Y-35500000D03*
%TD*%
D13*
%TO.C,J1*%
X82890000Y-5190000D03*
D14*
X82890000Y-7730000D03*
X82890000Y-10270000D03*
X82890000Y-12810000D03*
%TD*%
D12*
%TO.C,R1*%
X52725000Y-31500000D03*
X51075000Y-31500000D03*
%TD*%
D10*
%TO.C,JP3*%
X1720000Y-71650000D03*
X1080000Y-71650000D03*
%TD*%
D13*
%TO.C,J1*%
X82890000Y-23790000D03*
D14*
X82890000Y-26330000D03*
X82890000Y-28870000D03*
X82890000Y-31410000D03*
%TD*%
D12*
%TO.C,R1*%
X87525000Y-12900000D03*
X85875000Y-12900000D03*
%TD*%
D13*
%TO.C,J3*%
X9310000Y-31410000D03*
D14*
X9310000Y-28870000D03*
X9310000Y-26330000D03*
X9310000Y-23790000D03*
%TD*%
D12*
%TO.C,R1*%
X64325000Y-87300000D03*
X62675000Y-87300000D03*
%TD*%
D11*
%TO.C,C1*%
X4725000Y-42900000D03*
X6275000Y-42900000D03*
%TD*%
D10*
%TO.C,JP3*%
X71320000Y-15850000D03*
X70680000Y-15850000D03*
%TD*%
%TO.C,JP2*%
X62000000Y-16900000D03*
X61360000Y-16900000D03*
%TD*%
%TO.C,JP2*%
X73600000Y-16900000D03*
X72960000Y-16900000D03*
%TD*%
D16*
%TO.C,C2*%
X6275000Y-59500000D03*
X4725000Y-59500000D03*
%TD*%
D13*
%TO.C,J3*%
X90510000Y-31410000D03*
D14*
X90510000Y-28870000D03*
X90510000Y-26330000D03*
X90510000Y-23790000D03*
%TD*%
D10*
%TO.C,JP2*%
X4000000Y-91300000D03*
X3360000Y-91300000D03*
%TD*%
D13*
%TO.C,J1*%
X71290000Y-79590000D03*
D14*
X71290000Y-82130000D03*
X71290000Y-84670000D03*
X71290000Y-87210000D03*
%TD*%
D13*
%TO.C,J1*%
X59690000Y-79590000D03*
D14*
X59690000Y-82130000D03*
X59690000Y-84670000D03*
X59690000Y-87210000D03*
%TD*%
D10*
%TO.C,JP1*%
X27200000Y-53050000D03*
X26560000Y-53050000D03*
%TD*%
D11*
%TO.C,C1*%
X74325000Y-42900000D03*
X75875000Y-42900000D03*
%TD*%
D12*
%TO.C,R3*%
X64325000Y-66900000D03*
X62675000Y-66900000D03*
%TD*%
D11*
%TO.C,C1*%
X74325000Y-80100000D03*
X75875000Y-80100000D03*
%TD*%
D13*
%TO.C,J1*%
X82890000Y-79590000D03*
D14*
X82890000Y-82130000D03*
X82890000Y-84670000D03*
X82890000Y-87210000D03*
%TD*%
D16*
%TO.C,C2*%
X52675000Y-78100000D03*
X51125000Y-78100000D03*
%TD*%
D15*
%TO.C,R2*%
X55700000Y-17125000D03*
X55700000Y-15475000D03*
%TD*%
D11*
%TO.C,C1*%
X39525000Y-61500000D03*
X41075000Y-61500000D03*
%TD*%
%TO.C,C1*%
X74325000Y-24300000D03*
X75875000Y-24300000D03*
%TD*%
D10*
%TO.C,JP1*%
X15600000Y-15850000D03*
X14960000Y-15850000D03*
%TD*%
%TO.C,JP4*%
X59720000Y-16900000D03*
X59080000Y-16900000D03*
%TD*%
D11*
%TO.C,C1*%
X4725000Y-61500000D03*
X6275000Y-61500000D03*
%TD*%
D16*
%TO.C,C2*%
X41075000Y-3700000D03*
X39525000Y-3700000D03*
%TD*%
D10*
%TO.C,JP1*%
X73600000Y-90250000D03*
X72960000Y-90250000D03*
%TD*%
D16*
%TO.C,C2*%
X75875000Y-59500000D03*
X74325000Y-59500000D03*
%TD*%
%TO.C,C2*%
X87475000Y-22300000D03*
X85925000Y-22300000D03*
%TD*%
D13*
%TO.C,J3*%
X20910000Y-87210000D03*
D14*
X20910000Y-84670000D03*
X20910000Y-82130000D03*
X20910000Y-79590000D03*
%TD*%
D16*
%TO.C,C2*%
X41075000Y-40900000D03*
X39525000Y-40900000D03*
%TD*%
D13*
%TO.C,J1*%
X13290000Y-60990000D03*
D14*
X13290000Y-63530000D03*
X13290000Y-66070000D03*
X13290000Y-68610000D03*
%TD*%
D15*
%TO.C,R2*%
X67300000Y-17125000D03*
X67300000Y-15475000D03*
%TD*%
D10*
%TO.C,JP2*%
X85200000Y-72700000D03*
X84560000Y-72700000D03*
%TD*%
D11*
%TO.C,C1*%
X16325000Y-80100000D03*
X17875000Y-80100000D03*
%TD*%
D16*
%TO.C,C2*%
X41075000Y-59500000D03*
X39525000Y-59500000D03*
%TD*%
D15*
%TO.C,R2*%
X32500000Y-54325000D03*
X32500000Y-52675000D03*
%TD*%
D10*
%TO.C,JP4*%
X36520000Y-54100000D03*
X35880000Y-54100000D03*
%TD*%
D13*
%TO.C,J3*%
X67310000Y-87210000D03*
D14*
X67310000Y-84670000D03*
X67310000Y-82130000D03*
X67310000Y-79590000D03*
%TD*%
D16*
%TO.C,C2*%
X29475000Y-78100000D03*
X27925000Y-78100000D03*
%TD*%
D12*
%TO.C,R3*%
X52725000Y-85500000D03*
X51075000Y-85500000D03*
%TD*%
D10*
%TO.C,JP3*%
X24920000Y-53050000D03*
X24280000Y-53050000D03*
%TD*%
D13*
%TO.C,J3*%
X55710000Y-68610000D03*
D14*
X55710000Y-66070000D03*
X55710000Y-63530000D03*
X55710000Y-60990000D03*
%TD*%
D16*
%TO.C,C2*%
X17875000Y-78100000D03*
X16325000Y-78100000D03*
%TD*%
D10*
%TO.C,JP4*%
X71320000Y-35500000D03*
X70680000Y-35500000D03*
%TD*%
D13*
%TO.C,J1*%
X1690000Y-42390000D03*
D14*
X1690000Y-44930000D03*
X1690000Y-47470000D03*
X1690000Y-50010000D03*
%TD*%
D10*
%TO.C,JP2*%
X73600000Y-54100000D03*
X72960000Y-54100000D03*
%TD*%
D12*
%TO.C,R3*%
X41125000Y-48300000D03*
X39475000Y-48300000D03*
%TD*%
D10*
%TO.C,JP4*%
X82920000Y-91300000D03*
X82280000Y-91300000D03*
%TD*%
M02*
